<?xml version="1.0" encoding="utf-8"?>
<!-- Generator: Adobe Illustrator 27.5.0, SVG Export Plug-In . SVG Version: 6.00 Build 0)  -->
<svg version="1.1" id="Layer_1" xmlns="http://www.w3.org/2000/svg" xmlns:xlink="http://www.w3.org/1999/xlink" x="0px" y="0px"
	 viewBox="0 0 3000 2000" style="enable-background:new 0 0 3000 2000;" xml:space="preserve">
<rect style="fill:#FFFFFF;" width="3000" height="2000"/>
<g>
	<g>
		<g id="XMLID_00000102504604496381693870000002112089196839096970_">
			<polygon style="fill:#ED3948;" points="806.14,447.796 680.741,797.977 611.063,797.977 736.096,448.082 736.096,447.796 			"/>
			<polygon style="fill:#F0F0F0;" points="736.096,447.796 736.096,448.082 611.063,797.977 542.262,797.977 667.294,448.082 
				667.294,447.796 			"/>
			<polygon style="fill:#153395;" points="667.294,447.796 667.294,448.082 542.262,797.977 471.974,797.977 597.373,447.796 			"/>
		</g>
		<path style="fill:#FDBC62;" d="M729.719,803.192c9.209,20.537,14.322,42.642,15.138,65.073
			c-49.284-25.181-105.128-39.382-164.272-39.382c-62.445,0-121.182,15.83-172.421,43.66c0.265-23.898,5.46-47.511,15.24-69.352
			l4.564-10.166c5.093-11.389,15.688-19.355,28.054-21.086l13.467-1.895c71.022-9.942,143.124-9.942,214.166,0l13.447,1.895
			c12.367,1.732,22.961,9.697,28.055,21.086L729.719,803.192z M693.474,813.195V799.83c0-3.871-3.138-7.008-7.008-7.008h-219.81
			c-3.871,0-7.009,3.138-7.009,7.008v13.365c0,3.891,3.138,7.029,7.009,7.029h219.81
			C690.337,820.224,693.474,817.087,693.474,813.195z"/>
		<g id="XMLID_00000168079448498526140010000011520126481481581221_">
			<polygon style="fill:#153395;" points="346.552,447.796 471.951,797.977 541.628,797.977 416.596,448.082 416.596,447.796 			"/>
			<polygon style="fill:#F0F0F0;" points="416.596,447.796 416.596,448.082 541.628,797.977 610.43,797.977 485.397,448.082 
				485.397,447.796 			"/>
			<polygon style="fill:#ED3948;" points="485.397,447.796 485.397,448.082 610.43,797.977 680.719,797.977 555.32,447.796 			"/>
		</g>
		<path style="fill:#EDAC55;" d="M747.319,868.266c117.168,59.816,197.399,181.67,197.399,322.267
			c0,199.742-161.929,361.671-361.67,361.671c-199.742,0-361.651-161.928-361.651-361.671c0-137.297,76.503-256.727,189.23-317.99
			c51.239-27.83,109.976-43.66,172.421-43.66C642.192,828.883,698.036,843.083,747.319,868.266z"/>
		<path style="fill:#FDBC62;" d="M583.048,1523.381c-88.905,0-172.485-34.623-235.347-97.49
			c-62.862-62.866-97.481-146.452-97.481-235.358c0-122.136,66.734-234.275,174.158-292.656
			c48.385-26.28,103.253-40.172,158.67-40.172c53.253,0,104.113,12.191,151.169,36.235c53.815,27.473,99.212,69.117,131.291,120.433
			c32.964,52.734,50.388,113.649,50.388,176.161c0,88.905-34.623,172.49-97.49,235.358
			C755.538,1488.759,671.953,1523.381,583.048,1523.381z"/>
		<g>
			<g id="XMLID_00000125594950711009093160000010070135181946366130_">
				<path style="fill:#C49047;" d="M523.961,874.131c-0.029,0.022-0.028,0.044-0.055,0.066
					c-1.556,1.394-23.612,21.679-32.266,39.326c-8.99,18.28-36.932,36.603-36.935,36.609c-0.049,0.004,0.921-27.984,12.643-40.824
					C481.33,893.816,522.666,874.702,523.961,874.131z"/>
				<path style="fill:#FFDEAE;" d="M514.971,888.746c-4.993,12.127-7.89,22.582-15.138,35.997
					c-4.227,7.826-24.308,21.303-36.444,24.213c-4.851,1.807-8.685,1.177-8.684,1.176c0.004-0.007,27.944-18.329,36.935-36.609
					c8.653-17.648,30.706-37.932,32.266-39.326C523.231,875.095,517.586,882.422,514.971,888.746z"/>
			</g>
			<g id="XMLID_00000049903417462554268720000012677336580938300574_">
				<path style="fill:#C49047;" d="M556.742,932.026c-0.036,0.005-0.055,0.02-0.09,0.024c-2.185,0.298-33.575,4.818-53.583,14.328
					c-20.733,9.872-55.019,9.206-55.019,9.2c-0.028-0.007,22.914-21.928,41.236-25.912
					C511.294,924.835,555.356,931.807,556.742,932.026z"/>
				<path style="fill:#FFDEAE;" d="M538.992,939.032c-13.004,7.136-23.245,14.024-38.947,20.878
					c-9.159,4.007-34.072,3.835-44.942-0.506c-4.865-1.217-7.053-3.826-7.054-3.827c0,0.005,34.288,0.672,55.019-9.2
					c20.006-9.51,51.398-14.03,53.583-14.328C555.476,932.416,545.778,935.318,538.992,939.032z"/>
			</g>
			<g>
				<g id="XMLID_00000096019649727830539630000008307965861018507147_">
					<path style="fill:#C49047;" d="M456.362,913.922c-0.022,0.025-0.02,0.046-0.043,0.071c-1.3,1.557-19.512,24.159-24.739,42.532
						c-5.456,19.028-29.815,40.486-29.813,40.492c-0.05,0.007-4.604-27.552,4.634-41.59
						C417.369,938.503,455.161,914.639,456.362,913.922z"/>
					<path style="fill:#FFDEAE;" d="M450.164,929.349c-2.661,12.498-3.536,23.101-8.188,37.153
						c-2.719,8.197-20.182,23.911-31.749,28.279c-4.503,2.379-8.46,2.237-8.46,2.237c-0.004-0.007,24.359-21.464,29.813-40.492
						c5.224-18.372,23.44-40.974,24.739-42.532C455.814,914.957,451.562,922.831,450.164,929.349z"/>
				</g>
				<g id="XMLID_00000087408534221427490140000013478278314225150385_">
					<path style="fill:#C49047;" d="M500.364,966.602c-0.033,0.008-0.052,0.026-0.086,0.034c-2.128,0.561-32.681,8.867-50.85,20.682
						c-18.816,12.253-53.241,15.877-53.247,15.874c-0.035-0.006,18.608-24.365,36.191-30.552
						C453.479,965.156,498.946,966.551,500.364,966.602z"/>
					<path style="fill:#FFDEAE;" d="M483.948,975.666c-11.633,8.607-20.544,16.633-34.908,25.307
						c-8.372,5.065-33.313,7.992-45.046,5.091c-5.104-0.587-7.813-2.873-7.813-2.873c0.007,0.004,34.432-3.62,53.247-15.873
						c18.168-11.814,48.722-20.121,50.85-20.682C499.172,967.141,490.025,971.181,483.948,975.666z"/>
				</g>
			</g>
			<g>
				<g id="XMLID_00000038397492278735282740000010486149717236861098_">
					<path style="fill:#C49047;" d="M393.211,964.32c-0.016,0.029-0.007,0.048-0.022,0.077
						c-0.831,1.742-12.072,26.923-11.657,45.542c0.359,19.287-17.112,44.652-17.097,44.66c-0.044,0.01-12.986-25.505-8.139-40.749
						C361.949,995.485,392.221,965.237,393.211,964.32z"/>
					<path style="fill:#FFDEAE;" d="M391.71,980.283c1.132,12.474,3.463,22.793,3.119,37.168
						c-0.213,8.385-12.674,26.875-22.739,33.338c-3.711,3.166-7.658,3.809-7.658,3.809c-0.011-0.008,17.459-25.373,17.099-44.66
						c-0.417-18.619,10.826-43.8,11.657-45.542C392.979,965.415,391.129,973.776,391.71,980.283z"/>
				</g>
				<g id="XMLID_00000158742820786173225340000002204278153715196821_">
					<path style="fill:#C49047;" d="M452.534,1006.145c-0.032,0.015-0.044,0.035-0.075,0.05
						c-1.936,0.949-29.636,14.865-43.979,29.754c-14.853,15.429-47.651,25.667-47.651,25.667c-0.052,0,10.87-27.025,26.374-36.4
						C405.783,1013.893,451.125,1006.364,452.534,1006.145z"/>
					<path style="fill:#FFDEAE;" d="M439.033,1018.035c-8.904,10.524-15.277,19.966-26.807,31.096
						c-6.719,6.496-30.38,14.183-42.827,13.706c-5.208,0.438-8.579-1.22-8.577-1.221c0.009-0.001,32.805-10.238,47.658-25.667
						c14.343-14.89,42.043-28.805,43.979-29.754C451.516,1006.893,443.689,1012.549,439.033,1018.035z"/>
				</g>
			</g>
			<g>
				<g id="XMLID_00000161623040329900743530000003573419020450128769_">
					<path style="fill:#C49047;" d="M347.587,1020.723c-0.011,0.03,0.003,0.048-0.009,0.078c-0.562,1.798-7.857,27.741-4.474,46.106
						c3.416,19.03-10.011,45.785-9.994,45.791c-0.039,0.012-17.081-23.994-14.668-39.519
						C321.158,1054.487,346.732,1021.722,347.587,1020.723z"/>
					<path style="fill:#FFDEAE;" d="M348.606,1036.634c3.112,12.215,7.078,22.192,9.011,36.438
						c1.116,8.31-8.424,27.783-17.457,35.134c-3.208,3.484-7.049,4.495-7.049,4.495c-0.021-0.007,13.407-26.763,9.993-45.792
						c-3.383-18.367,3.915-44.308,4.474-46.106C347.528,1021.827,346.993,1030.261,348.606,1036.634z"/>
				</g>
				<g id="XMLID_00000115497771947057861380000010320563672928591777_">
					<path style="fill:#C49047;" d="M413.631,1056.433c-0.031,0.018-0.035,0.04-0.067,0.057
						c-1.793,1.119-27.357,17.496-39.351,33.584c-12.427,16.668-43.581,29.909-43.592,29.913
						c-0.048,0.001,6.547-27.771,20.591-38.513C368.016,1068.508,412.254,1056.781,413.631,1056.433z"/>
					<path style="fill:#FFDEAE;" d="M401.974,1069.467c-7.266,11.251-12.153,21.192-21.927,33.296
						c-5.695,7.064-28.129,16.906-40.651,17.618c-5.138,0.928-8.775-0.394-8.774-0.393c0.01-0.004,31.165-13.245,43.592-29.913
						c11.992-16.088,37.557-32.464,39.351-33.584C412.73,1057.269,405.771,1063.601,401.974,1069.467z"/>
				</g>
			</g>
			<g>
				<g id="XMLID_00000039840688348547405250000017597321790314374561_">
					<path style="fill:#C49047;" d="M313.018,1082.276c0.001,0.03,0.014,0.046,0.011,0.077c-0.108,1.835-0.794,28.224,7.212,45.585
						c8.186,17.999,1.725,46.223,1.753,46.228c-0.025,0.012-22.999-20.714-24.573-36.213
						C295.322,1119.308,312.401,1083.378,313.018,1082.276z"/>
					<path style="fill:#FFDEAE;" d="M318.041,1097.591c6.168,11.394,12.613,20.482,18.122,34.063
						c3.196,7.922-1.308,28.418-8.353,37.015c-2.28,3.905-5.817,5.497-5.817,5.497c-0.03-0.004,6.434-28.23-1.753-46.229
						c-8.007-17.362-7.319-43.749-7.212-45.585C313.233,1083.358,314.832,1091.644,318.041,1097.591z"/>
				</g>
				<g id="XMLID_00000153677678938492404760000012380668452639487910_">
					<path style="fill:#C49047;" d="M387.437,1106.634c-0.025,0.021-0.025,0.043-0.052,0.065
						c-1.5,1.371-22.728,21.344-30.523,38.925c-8.092,18.212-35.46,36.04-35.466,36.046c-0.05,0.007-0.625-28.132,10.555-40.815
						C345.28,1125.558,386.157,1107.183,387.437,1106.634z"/>
					<path style="fill:#FFDEAE;" d="M379.146,1121.169c-4.379,12.113-6.723,22.578-13.326,35.926
						c-3.853,7.787-23.496,20.914-35.666,23.58c-4.827,1.714-8.761,0.996-8.758,0.996c0.003-0.005,27.373-17.833,35.466-36.046
						c7.793-17.582,29.022-37.553,30.523-38.925C386.752,1107.59,381.44,1114.854,379.146,1121.169z"/>
				</g>
			</g>
			<g>
				<g id="XMLID_00000153691556636095116210000002880594590246568580_">
					<path style="fill:#C49047;" d="M293.33,1145.731c0.006,0.03,0.025,0.044,0.029,0.073c0.331,1.808,6.055,27.691,18.186,43.493
						c12.452,16.391,12.94,45.019,12.979,45.02c-0.015,0.011-27.738-16.891-33.09-31.816
						C284.786,1184.563,292.971,1146.897,293.33,1145.731z"/>
					<path style="fill:#FFDEAE;" d="M302.013,1159.944c8.865,10.218,17.441,18.144,26.167,30.622
						c5.072,7.28,5.589,28.029,0.739,37.501c-1.3,4.166-4.394,6.251-4.394,6.251c-0.039-0.001-0.529-28.629-12.98-45.02
						c-12.13-15.801-17.855-41.686-18.186-43.493C293.807,1146.755,297.396,1154.611,302.013,1159.944z"/>
				</g>
				<g id="XMLID_00000112625986540076793170000014257752326429431705_">
					<path style="fill:#C49047;" d="M372.859,1158.472c-0.02,0.025-0.017,0.046-0.037,0.072
						c-1.159,1.562-17.385,24.258-20.828,42.638c-3.608,19.041-26.229,40.575-26.227,40.582c-0.049,0.009-7.485-27.489,0.48-41.564
						C335.684,1183.237,371.712,1159.195,372.859,1158.472z"/>
					<path style="fill:#FFDEAE;" d="M368.131,1173.93c-1.43,12.51-1.233,23.111-4.534,37.172
						c-1.925,8.201-18.108,23.974-29.444,28.39c-4.341,2.396-8.387,2.273-8.387,2.273c-0.003-0.006,22.618-21.541,26.228-40.582
						c3.444-18.383,19.667-41.074,20.828-42.638C372.406,1159.51,368.888,1167.405,368.131,1173.93z"/>
				</g>
			</g>
			<g>
				<g id="XMLID_00000145760785065173151660000008106485800832463528_">
					<path style="fill:#C49047;" d="M292.42,1219.63c0.017,0.028,0.038,0.038,0.053,0.065c0.921,1.669,15.098,25.394,32.098,38.159
						c17.499,13.255,27.49,40.845,27.535,40.84c-0.005,0.006-32.407-10.688-42.592-23.981
						C297.063,1258.759,292.444,1220.82,292.42,1219.63z"/>
					<path style="fill:#FFDEAE;" d="M305.575,1231.52c11.996,8.014,22.94,13.897,35.521,24.156
						c7.318,5.987,14.69,25.931,13.167,36.08c0.133,4.293-2.154,6.938-2.154,6.938c-0.048,0.005-10.042-27.584-27.538-40.84
						c-17-12.766-31.177-36.492-32.098-38.159C293.227,1220.516,299.324,1227.334,305.575,1231.52z"/>
				</g>
				<g id="XMLID_00000147929163076935961330000003279699745947145627_">
					<path style="fill:#C49047;" d="M373.842,1215.596c-0.01,0.029-0.002,0.047-0.012,0.077c-0.63,1.746-8.931,26.94-6.185,45.403
						c2.777,19.133-11.873,44.564-11.856,44.571c-0.042,0.013-16.406-25.066-13.369-40.274
						C345.893,1247.062,372.949,1216.525,373.842,1215.596z"/>
					<path style="fill:#FFDEAE;" d="M374.311,1231.474c2.713,12.366,6.379,22.57,7.82,36.836c0.83,8.323-9.566,26.863-19.016,33.435
						c-3.387,3.199-7.327,3.901-7.327,3.901c-0.016-0.005,14.631-25.439,11.857-44.571c-2.746-18.465,5.555-43.658,6.185-45.403
						C373.745,1216.688,372.903,1225.023,374.311,1231.474z"/>
				</g>
			</g>
			<g>
				<g id="XMLID_00000011723822317273991870000018209467933753347763_">
					<path style="fill:#C49047;" d="M310.07,1282.407c0.018,0.027,0.039,0.037,0.058,0.063c1.053,1.628,17.111,24.76,35.141,36.888
						c18.566,12.598,30.714,39.734,30.756,39.728c-0.002,0.008-33.299-9.537-44.543-22.421
						C317.756,1321.207,310.186,1283.591,310.07,1282.407z"/>
					<path style="fill:#FFDEAE;" d="M324.185,1293.791c12.651,7.566,24.077,13.045,37.482,22.83
						c7.8,5.71,16.724,25.322,15.984,35.481c0.462,4.272-1.625,6.984-1.626,6.984c-0.045,0.005-12.188-27.13-30.756-39.728
						c-18.031-12.129-34.09-35.259-35.141-36.888C310.945,1283.261,317.591,1289.838,324.185,1293.791z"/>
				</g>
				<g id="XMLID_00000168814335262093912690000013418368670258393764_">
					<path style="fill:#C49047;" d="M391.424,1275.583c-0.007,0.028,0.002,0.047-0.006,0.077c-0.497,1.758-6.895,27.134-2.72,45.428
						c4.246,18.962-8.46,44.79-8.445,44.797c-0.041,0.013-18.378-24.405-16.51-39.653
						C365.806,1307.877,390.598,1276.538,391.424,1275.583z"/>
					<path style="fill:#FFDEAE;" d="M393.11,1291.38c3.669,12.223,8.124,22.26,10.663,36.418c1.47,8.261-7.521,27.083-16.48,33.95
						c-3.149,3.303-7.041,4.136-7.041,4.136c-0.015-0.007,12.692-25.834,8.446-44.797c-4.176-18.294,2.224-43.669,2.72-45.428
						C391.407,1276.674,391.207,1285.002,393.11,1291.38z"/>
				</g>
			</g>
			<g id="XMLID_00000134958292920198793430000011409243377640968838_">
				<path style="fill:#C49047;" d="M345.578,1351.253c0.026,0.023,0.053,0.025,0.079,0.048c1.605,1.328,25.455,20.039,47.04,27.778
					c22.275,8.057,43.762,31.691,43.808,31.68c0.007,0.001-35.021-1.94-50.476-11.9
					C367.272,1386.934,346.116,1352.358,345.578,1351.253z"/>
				<path style="fill:#FFDEAE;" d="M363.221,1359.077c14.829,4.481,27.709,7.236,44.034,13.732
					c9.506,3.792,25.165,20.814,28.21,30.826c2.017,4.037,1.039,7.126,1.039,7.126c-0.044,0.011-21.533-23.624-43.808-31.681
					c-21.59-7.74-45.433-26.451-47.04-27.778C346.727,1351.881,355.488,1356.733,363.221,1359.077z"/>
			</g>
			<g id="XMLID_00000047044097263057492310000005283264065116249220_">
				<path style="fill:#C49047;" d="M402.767,1413.147c0.032,0.019,0.054,0.017,0.088,0.035c1.901,1.083,29.793,16.229,52.745,20.908
					c23.707,4.885,50.396,25.334,50.435,25.32c0,0-34.584,2.853-52.1-4.861C432.726,1445.33,403.567,1414.154,402.767,1413.147z"/>
				<path style="fill:#FFDEAE;" d="M421.928,1418.414c15.586,2.367,28.839,3.306,46.354,7.479
					c10.203,2.437,29.608,17.118,35.007,26.61c2.948,3.717,2.747,6.908,2.747,6.908c-0.037,0.012-26.729-20.436-50.435-25.321
					c-22.951-4.68-50.846-19.826-52.745-20.908C404.047,1413.606,413.798,1417.172,421.928,1418.414z"/>
			</g>
			<g id="XMLID_00000116934851285117191610000005192815339299500461_">
				<path style="fill:#C49047;" d="M420.576,1326.586c0.002,0.03,0.02,0.045,0.022,0.075c0.154,1.808,3.287,27.721,13.95,44.513
					c10.943,17.415,8.432,45.25,8.465,45.251c-0.021,0.014-26.406-19.63-30.253-34.781
					C407.924,1363.433,420.11,1327.688,420.576,1326.586z"/>
				<path style="fill:#FFDEAE;" d="M427.914,1341.471c7.933,11.004,15.814,19.733,23.387,32.89
					c4.399,7.677,2.772,27.893-3.158,36.513c-1.757,3.892-5.128,5.552-5.128,5.552c-0.031-0.002,2.48-27.837-8.465-45.252
					c-10.664-16.792-13.794-42.706-13.95-44.513C420.953,1327.642,423.783,1335.729,427.914,1341.471z"/>
			</g>
			<g id="XMLID_00000111149948860847773380000002707919544541171332_">
				<path style="fill:#C49047;" d="M466.762,1384c0.007,0.025,0.032,0.035,0.035,0.062c0.531,1.538,8.911,23.514,21.68,36.713
					c13.143,13.699,17.06,38.135,17.091,38.132c-0.011,0.008-26.759-13.748-33.378-26.361
					C464.066,1417.394,466.599,1385.01,466.762,1384z"/>
				<path style="fill:#FFDEAE;" d="M476.306,1395.931c9.19,8.51,17.83,15.073,27.156,25.519c5.425,6.095,8.434,23.808,5.263,32.013
					c-0.65,3.589-3.157,5.443-3.157,5.443c-0.029,0.003-3.947-24.435-17.09-38.132c-12.767-13.199-21.149-35.174-21.68-36.713
					C467.318,1384.863,471.518,1391.487,476.306,1395.931z"/>
			</g>
		</g>
		<g>
			<g id="XMLID_00000150068852093539496450000016119154982531918257_">
				<path style="fill:#C49047;" d="M629.059,874.131c0.029,0.022,0.028,0.044,0.055,0.066c1.556,1.394,23.612,21.679,32.266,39.326
					c8.99,18.28,36.932,36.603,36.932,36.603c0.052,0.01-0.918-27.978-12.64-40.818C671.69,893.816,630.354,874.702,629.059,874.131
					z"/>
				<path style="fill:#FFDEAE;" d="M638.049,888.746c4.992,12.127,7.89,22.582,15.138,35.997
					c4.226,7.826,24.308,21.303,36.444,24.213c4.851,1.807,8.685,1.177,8.684,1.176c0,0-27.944-18.329-36.935-36.609
					c-8.653-17.648-30.707-37.932-32.266-39.326C629.789,875.095,635.434,882.422,638.049,888.746z"/>
			</g>
			<g id="XMLID_00000065785458434400018400000004955398195306744767_">
				<path style="fill:#C49047;" d="M596.279,932.026c0.036,0.005,0.055,0.02,0.09,0.024c2.185,0.298,33.574,4.818,53.583,14.328
					c20.733,9.872,55.019,9.206,55.019,9.2c0.028-0.007-22.914-21.928-41.237-25.912
					C641.727,924.835,597.664,931.807,596.279,932.026z"/>
				<path style="fill:#FFDEAE;" d="M614.028,939.032c13.003,7.136,23.245,14.024,38.947,20.878
					c9.159,4.007,34.072,3.835,44.942-0.506c4.864-1.217,7.053-3.826,7.054-3.827c0,0.005-34.288,0.672-55.019-9.2
					c-20.006-9.51-51.398-14.03-53.583-14.328C597.545,932.416,607.242,935.318,614.028,939.032z"/>
			</g>
			<g>
				<g id="XMLID_00000011752358344850659000000016996098368858200506_">
					<path style="fill:#C49047;" d="M696.658,913.922c0.022,0.025,0.02,0.046,0.043,0.071c1.3,1.557,19.512,24.159,24.739,42.532
						c5.456,19.028,29.815,40.486,29.813,40.492c0.05,0.007,4.603-27.552-4.634-41.59
						C735.651,938.503,697.858,914.639,696.658,913.922z"/>
					<path style="fill:#FFDEAE;" d="M702.857,929.349c2.661,12.498,3.536,23.101,8.188,37.153
						c2.718,8.197,20.181,23.911,31.749,28.279c4.503,2.379,8.46,2.237,8.46,2.237c0.004-0.007-24.359-21.464-29.813-40.492
						c-5.224-18.372-23.44-40.974-24.739-42.532C697.206,914.957,701.458,922.831,702.857,929.349z"/>
				</g>
				<g id="XMLID_00000004519244239590624400000013960036138458996143_">
					<path style="fill:#C49047;" d="M652.656,966.602c0.032,0.008,0.052,0.026,0.086,0.034c2.128,0.561,32.681,8.867,50.85,20.682
						c18.816,12.253,53.241,15.877,53.247,15.874c0.034-0.006-18.608-24.365-36.191-30.552
						C699.541,965.156,654.074,966.551,652.656,966.602z"/>
					<path style="fill:#FFDEAE;" d="M669.071,975.666c11.634,8.607,20.544,16.633,34.909,25.307
						c8.371,5.065,33.313,7.992,45.046,5.091c5.104-0.587,7.813-2.873,7.813-2.873c-0.007,0.004-34.432-3.62-53.247-15.873
						c-18.168-11.814-48.722-20.121-50.85-20.682C653.849,967.141,662.995,971.181,669.071,975.666z"/>
				</g>
			</g>
			<g>
				<g id="XMLID_00000145057430450002222020000009148921700090644624_">
					<path style="fill:#C49047;" d="M759.81,964.32c0.016,0.029,0.007,0.048,0.021,0.077c0.831,1.742,12.073,26.923,11.657,45.542
						c-0.358,19.287,17.112,44.652,17.097,44.66c0.044,0.01,12.986-25.505,8.139-40.749
						C791.071,995.485,760.799,965.237,759.81,964.32z"/>
					<path style="fill:#FFDEAE;" d="M761.31,980.283c-1.133,12.474-3.463,22.793-3.119,37.168
						c0.212,8.385,12.674,26.875,22.739,33.338c3.711,3.166,7.658,3.809,7.658,3.809c0.011-0.008-17.459-25.373-17.1-44.66
						c0.418-18.619-10.825-43.8-11.657-45.542C760.042,965.415,761.892,973.776,761.31,980.283z"/>
				</g>
				<g id="XMLID_00000140708418854129399690000015214656783665493685_">
					<path style="fill:#C49047;" d="M700.487,1006.145c0.031,0.015,0.045,0.035,0.075,0.05c1.935,0.949,29.636,14.865,43.978,29.754
						c14.854,15.429,47.651,25.667,47.658,25.667c0.046,0-10.876-27.025-26.38-36.4
						C747.237,1013.893,701.896,1006.364,700.487,1006.145z"/>
					<path style="fill:#FFDEAE;" d="M713.987,1018.035c8.904,10.524,15.276,19.966,26.806,31.096
						c6.719,6.496,30.381,14.183,42.827,13.706c5.208,0.438,8.579-1.22,8.577-1.221c-0.008-0.001-32.804-10.238-47.658-25.667
						c-14.342-14.89-42.042-28.805-43.978-29.754C701.505,1006.893,709.331,1012.549,713.987,1018.035z"/>
				</g>
			</g>
			<g>
				<g id="XMLID_00000089538110795711199380000010246191443636065442_">
					<path style="fill:#C49047;" d="M805.433,1020.723c0.011,0.03-0.003,0.048,0.008,0.078c0.562,1.798,7.858,27.741,4.474,46.106
						c-3.416,19.03,10.011,45.785,9.994,45.791c0.039,0.012,17.081-23.994,14.668-39.519
						C831.862,1054.487,806.288,1021.722,805.433,1020.723z"/>
					<path style="fill:#FFDEAE;" d="M804.413,1036.634c-3.111,12.215-7.077,22.192-9.01,36.438
						c-1.116,8.31,8.424,27.783,17.456,35.134c3.209,3.484,7.05,4.495,7.05,4.495c0.021-0.007-13.407-26.763-9.993-45.792
						c3.384-18.367-3.915-44.308-4.474-46.106C805.492,1021.827,806.027,1030.261,804.413,1036.634z"/>
				</g>
				<g id="XMLID_00000033358052542336444040000000877116359924492969_">
					<path style="fill:#C49047;" d="M739.389,1056.433c0.031,0.018,0.035,0.04,0.067,0.057c1.793,1.119,27.357,17.496,39.351,33.584
						c12.427,16.668,43.581,29.909,43.592,29.913c0.048,0.001-6.547-27.771-20.591-38.513
						C785.004,1068.508,740.765,1056.781,739.389,1056.433z"/>
					<path style="fill:#FFDEAE;" d="M751.047,1069.467c7.266,11.251,12.153,21.192,21.927,33.296
						c5.695,7.064,28.129,16.906,40.652,17.618c5.138,0.928,8.775-0.394,8.775-0.394c-0.012-0.003-31.167-13.245-43.593-29.912
						c-11.992-16.088-37.557-32.464-39.351-33.584C740.29,1057.269,747.25,1063.601,751.047,1069.467z"/>
				</g>
			</g>
			<g>
				<g id="XMLID_00000107551927520098633240000016400626781420960898_">
					<path style="fill:#C49047;" d="M840.003,1082.276c-0.001,0.03-0.014,0.046-0.011,0.077c0.107,1.835,0.794,28.224-7.213,45.585
						c-8.185,17.999-1.724,46.223-1.752,46.228c0.025,0.012,22.999-20.714,24.573-36.213
						C857.699,1119.308,840.618,1083.378,840.003,1082.276z"/>
					<path style="fill:#FFDEAE;" d="M834.979,1097.591c-6.168,11.394-12.613,20.482-18.122,34.063
						c-3.197,7.922,1.307,28.418,8.353,37.015c2.279,3.905,5.817,5.497,5.817,5.497c0.03-0.004-6.434-28.23,1.752-46.229
						c8.008-17.362,7.32-43.749,7.213-45.585C839.787,1083.358,838.188,1091.644,834.979,1097.591z"/>
				</g>
				<g id="XMLID_00000129896114736967601790000015503879515562368702_">
					<path style="fill:#C49047;" d="M765.583,1106.634c0.025,0.021,0.025,0.043,0.052,0.065c1.5,1.371,22.727,21.344,30.523,38.925
						c8.092,18.212,35.46,36.04,35.466,36.046c0.05,0.007,0.625-28.132-10.555-40.815
						C807.74,1125.558,766.863,1107.183,765.583,1106.634z"/>
					<path style="fill:#FFDEAE;" d="M773.874,1121.169c4.378,12.113,6.722,22.578,13.326,35.926
						c3.853,7.787,23.496,20.914,35.665,23.58c4.828,1.714,8.761,0.996,8.761,0.996c-0.006-0.005-27.376-17.833-35.468-36.046
						c-7.793-17.582-29.022-37.553-30.523-38.925C766.269,1107.59,771.581,1114.854,773.874,1121.169z"/>
				</g>
			</g>
			<g>
				<g id="XMLID_00000094606211886667738910000008840755247760580276_">
					<path style="fill:#C49047;" d="M859.69,1145.731c-0.006,0.03-0.025,0.044-0.029,0.073c-0.331,1.808-6.055,27.691-18.186,43.493
						c-12.452,16.391-12.94,45.019-12.979,45.02c0.015,0.011,27.737-16.891,33.09-31.816
						C868.234,1184.563,860.049,1146.897,859.69,1145.731z"/>
					<path style="fill:#FFDEAE;" d="M851.006,1159.944c-8.864,10.218-17.44,18.144-26.166,30.622
						c-5.072,7.28-5.589,28.029-0.739,37.501c1.3,4.166,4.393,6.251,4.393,6.251c0.04-0.001,0.529-28.629,12.981-45.02
						c12.13-15.801,17.855-41.686,18.186-43.493C859.213,1146.755,855.624,1154.611,851.006,1159.944z"/>
				</g>
				<g id="XMLID_00000169535238060398566160000000590041375917762713_">
					<path style="fill:#C49047;" d="M780.162,1158.472c0.02,0.025,0.016,0.046,0.037,0.072c1.159,1.562,17.385,24.258,20.827,42.638
						c3.609,19.041,26.23,40.575,26.228,40.582c0.048,0.009,7.485-27.489-0.48-41.564
						C817.336,1183.237,781.308,1159.195,780.162,1158.472z"/>
					<path style="fill:#FFDEAE;" d="M784.889,1173.93c1.43,12.51,1.233,23.111,4.533,37.172c1.926,8.201,18.109,23.974,29.444,28.39
						c4.342,2.396,8.387,2.273,8.387,2.273c0.003-0.006-22.618-21.541-26.228-40.582c-3.444-18.383-19.666-41.074-20.827-42.638
						C780.613,1159.51,784.132,1167.405,784.889,1173.93z"/>
				</g>
			</g>
			<g>
				<g id="XMLID_00000111878495903429542250000014226206672944659091_">
					<path style="fill:#C49047;" d="M860.6,1219.63c-0.017,0.028-0.038,0.038-0.053,0.065c-0.92,1.669-15.098,25.394-32.098,38.159
						c-17.499,13.255-27.49,40.845-27.535,40.84c0.005,0.006,32.407-10.688,42.591-23.981
						C855.957,1258.759,860.576,1220.82,860.6,1219.63z"/>
					<path style="fill:#FFDEAE;" d="M847.445,1231.52c-11.996,8.014-22.94,13.897-35.521,24.156
						c-7.318,5.987-14.69,25.931-13.168,36.08c-0.132,4.293,2.155,6.938,2.157,6.938c0.045,0.005,10.039-27.584,27.535-40.84
						c17-12.766,31.176-36.492,32.098-38.159C859.792,1220.516,853.697,1227.334,847.445,1231.52z"/>
				</g>
				<g id="XMLID_00000155852343095183453940000018384657505989605511_">
					<path style="fill:#C49047;" d="M779.178,1215.596c0.01,0.029,0.002,0.047,0.011,0.077c0.63,1.746,8.931,26.94,6.185,45.403
						c-2.776,19.133,11.873,44.564,11.856,44.571c0.042,0.013,16.406-25.066,13.369-40.274
						C807.126,1247.062,780.071,1216.525,779.178,1215.596z"/>
					<path style="fill:#FFDEAE;" d="M778.708,1231.474c-2.713,12.366-6.378,22.57-7.82,36.836
						c-0.829,8.323,9.567,26.863,19.016,33.435c3.387,3.199,7.327,3.901,7.327,3.901c0.017-0.005-14.63-25.439-11.856-44.571
						c2.746-18.465-5.555-43.658-6.185-45.403C779.275,1216.688,780.117,1225.023,778.708,1231.474z"/>
				</g>
			</g>
			<g>
				<g id="XMLID_00000150098055503523611080000013690697576171423913_">
					<path style="fill:#C49047;" d="M842.95,1282.407c-0.018,0.027-0.039,0.037-0.058,0.063
						c-1.053,1.628-17.111,24.76-35.141,36.888c-18.566,12.598-30.714,39.734-30.756,39.728c0.002,0.008,33.299-9.537,44.543-22.421
						C835.265,1321.207,842.834,1283.591,842.95,1282.407z"/>
					<path style="fill:#FFDEAE;" d="M828.835,1293.791c-12.651,7.566-24.077,13.045-37.483,22.83
						c-7.799,5.71-16.723,25.322-15.983,35.481c-0.463,4.272,1.625,6.984,1.626,6.984c0.045,0.005,12.188-27.13,30.756-39.728
						c18.03-12.129,34.09-35.259,35.141-36.888C842.076,1283.261,835.43,1289.838,828.835,1293.791z"/>
				</g>
				<g id="XMLID_00000079488251917566579030000017024631514222811547_">
					<path style="fill:#C49047;" d="M761.596,1275.583c0.007,0.028-0.002,0.047,0.005,0.077c0.498,1.758,6.896,27.134,2.721,45.428
						c-4.246,18.962,8.46,44.79,8.444,44.797c0.042,0.013,18.379-24.405,16.51-39.653
						C787.214,1307.877,762.422,1276.538,761.596,1275.583z"/>
					<path style="fill:#FFDEAE;" d="M759.91,1291.38c-3.668,12.223-8.123,22.26-10.662,36.418
						c-1.471,8.261,7.521,27.083,16.48,33.95c3.149,3.303,7.04,4.136,7.04,4.136c0.015-0.007-12.692-25.834-8.446-44.797
						c4.176-18.294-2.224-43.669-2.721-45.428C761.613,1276.674,761.813,1285.002,759.91,1291.38z"/>
				</g>
			</g>
			<g id="XMLID_00000026159625023943098760000014240591869710891441_">
				<path style="fill:#C49047;" d="M807.442,1351.253c-0.025,0.023-0.052,0.025-0.078,0.048
					c-1.605,1.328-25.455,20.039-47.041,27.778c-22.274,8.057-43.761,31.691-43.808,31.68c0,0,35.021-1.94,50.476-11.9
					C785.748,1386.934,806.903,1352.358,807.442,1351.253z"/>
				<path style="fill:#FFDEAE;" d="M789.799,1359.077c-14.83,4.481-27.709,7.236-44.035,13.732
					c-9.505,3.792-25.165,20.814-28.21,30.826c-2.016,4.037-1.039,7.126-1.039,7.126c0.044,0.011,21.532-23.624,43.808-31.681
					c21.59-7.74,45.433-26.451,47.041-27.778C806.293,1351.881,797.532,1356.733,789.799,1359.077z"/>
			</g>
			<g id="XMLID_00000056408160105535136550000014910847463692972680_">
				<path style="fill:#C49047;" d="M750.253,1413.147c-0.033,0.019-0.055,0.017-0.088,0.035
					c-1.901,1.083-29.793,16.229-52.745,20.908c-23.707,4.885-50.396,25.334-50.435,25.32c0,0,34.584,2.853,52.099-4.861
					C720.294,1445.33,749.453,1414.154,750.253,1413.147z"/>
				<path style="fill:#FFDEAE;" d="M731.093,1418.414c-15.586,2.367-28.839,3.306-46.354,7.479
					c-10.204,2.437-29.608,17.118-35.007,26.61c-2.949,3.717-2.747,6.908-2.747,6.908c0.038,0.012,26.729-20.436,50.436-25.321
					c22.951-4.68,50.845-19.826,52.745-20.908C748.974,1413.606,739.221,1417.172,731.093,1418.414z"/>
			</g>
			<g id="XMLID_00000181053865435652751300000004242721439756880795_">
				<path style="fill:#C49047;" d="M732.443,1326.586c-0.001,0.03-0.02,0.045-0.022,0.075c-0.154,1.808-3.287,27.721-13.951,44.513
					c-10.943,17.415-8.432,45.25-8.464,45.251c0.021,0.014,26.406-19.63,30.253-34.781
					C745.096,1363.433,732.911,1327.688,732.443,1326.586z"/>
				<path style="fill:#FFDEAE;" d="M725.106,1341.471c-7.932,11.004-15.814,19.733-23.387,32.89
					c-4.399,7.677-2.772,27.893,3.158,36.513c1.758,3.892,5.129,5.552,5.129,5.552c0.031-0.002-2.48-27.837,8.464-45.252
					c10.664-16.792,13.795-42.706,13.951-44.513C732.067,1327.642,729.237,1335.729,725.106,1341.471z"/>
			</g>
			<g id="XMLID_00000005965580254542230670000001536688945676126599_">
				<path style="fill:#C49047;" d="M686.257,1384c-0.006,0.025-0.031,0.035-0.035,0.062c-0.532,1.538-8.911,23.514-21.681,36.713
					c-13.142,13.699-17.059,38.135-17.091,38.132c0.011,0.008,26.759-13.748,33.378-26.361
					C688.954,1417.394,686.422,1385.01,686.257,1384z"/>
				<path style="fill:#FFDEAE;" d="M676.714,1395.931c-9.19,8.51-17.831,15.073-27.156,25.519
					c-5.426,6.095-8.434,23.808-5.263,32.013c0.65,3.589,3.157,5.443,3.157,5.443c0.029,0.003,3.948-24.435,17.089-38.132
					c12.768-13.199,21.15-35.174,21.681-36.713C685.702,1384.863,681.502,1391.487,676.714,1395.931z"/>
			</g>
		</g>
		<g>
			<path style="fill:#C49047;" d="M476.086,1322.883v-75.688h56.632v-113.142h-56.632v-72.624h14.398
				c8.009,0,15.764-0.476,23.047-1.416c6.379-0.82,11.587-2.177,15.484-4.035c3.768-1.811,6.538-4.031,8.194-6.577
				c1.752-2.697,2.802-6.447,3.116-11.147l0.897-13.438h87.565v222.379h55.369v75.688H476.086z"/>
			<path style="fill:#FFDEAE;" d="M669.757,1308.484H490.484v-46.892h56.632v-141.939h-56.632v-43.826
				c8.657,0,16.953-0.51,24.889-1.534c7.935-1.019,14.546-2.795,19.839-5.32c6.25-3.003,10.94-6.913,14.067-11.723
				c3.126-4.808,4.929-10.822,5.411-18.036h59.698v222.378h55.369V1308.484z"/>
		</g>
		<path style="fill:#C49047;" d="M634.974,1465.831c0,13.643-25.804,24.703-57.636,24.703c-31.832,0-57.637-11.06-57.637-24.703
			s25.805-24.703,57.637-24.703C609.17,1441.129,634.974,1452.188,634.974,1465.831z"/>
		<path style="fill:#FFDEAE;" d="M577.337,1486.215c-31.421,0-53.317-10.742-53.317-20.384c0-9.64,21.896-20.383,53.317-20.383
			s53.318,10.743,53.318,20.383C630.655,1475.473,608.758,1486.215,577.337,1486.215z"/>
	</g>
	<g>
		<g>
			<g id="XMLID_00000168082140223479931460000016702261603008506543_">
				<polygon style="fill:#ED3948;" points="1759.964,447.796 1634.565,797.977 1564.888,797.977 1689.92,448.082 1689.92,447.796 
									"/>
				<polygon style="fill:#F0F0F0;" points="1689.92,447.796 1689.92,448.082 1564.888,797.977 1496.086,797.977 1621.119,448.082 
					1621.119,447.796 				"/>
				<polygon style="fill:#153395;" points="1621.119,447.796 1621.119,448.082 1496.086,797.977 1425.798,797.977 1551.197,447.796 
									"/>
			</g>
			<path style="fill:#F69C62;" d="M1683.544,803.192c9.209,20.537,14.322,42.642,15.138,65.073
				c-49.284-25.181-105.128-39.382-164.272-39.382c-62.445,0-121.182,15.83-172.421,43.66c0.265-23.898,5.46-47.511,15.24-69.352
				l4.564-10.166c5.093-11.389,15.688-19.355,28.054-21.086l13.467-1.895c71.022-9.942,143.124-9.942,214.166,0l13.447,1.895
				c12.367,1.732,22.961,9.697,28.055,21.086L1683.544,803.192z M1647.299,813.195V799.83c0-3.871-3.138-7.008-7.008-7.008h-219.81
				c-3.871,0-7.009,3.138-7.009,7.008v13.365c0,3.891,3.138,7.029,7.009,7.029h219.81
				C1644.161,820.224,1647.299,817.087,1647.299,813.195z"/>
			<g id="XMLID_00000007400802471046751520000002605888699325842105_">
				<polygon style="fill:#153395;" points="1300.376,447.796 1425.775,797.977 1495.453,797.977 1370.421,448.082 1370.421,447.796 
									"/>
				<polygon style="fill:#F0F0F0;" points="1370.421,447.796 1370.421,448.082 1495.453,797.977 1564.254,797.977 1439.222,448.082 
					1439.222,447.796 				"/>
				<polygon style="fill:#ED3948;" points="1439.222,447.796 1439.222,448.082 1564.254,797.977 1634.543,797.977 1509.144,447.796 
									"/>
			</g>
			<path style="fill:#E68A54;" d="M1701.144,868.266c117.168,59.816,197.399,181.67,197.399,322.267
				c0,199.742-161.929,361.671-361.67,361.671c-199.742,0-361.651-161.928-361.651-361.671c0-137.297,76.503-256.727,189.229-317.99
				c51.239-27.83,109.976-43.66,172.421-43.66C1596.017,828.883,1651.86,843.083,1701.144,868.266z"/>
			<path style="fill:#F69C62;" d="M1536.873,1523.381c-88.905,0-172.485-34.623-235.347-97.49
				c-62.862-62.866-97.481-146.452-97.481-235.358c0-122.136,66.734-234.275,174.158-292.656
				c48.385-26.28,103.253-40.172,158.67-40.172c53.253,0,104.113,12.191,151.169,36.235
				c53.815,27.473,99.212,69.117,131.291,120.433c32.964,52.734,50.388,113.649,50.388,176.161
				c0,88.905-34.623,172.49-97.49,235.358C1709.363,1488.759,1625.778,1523.381,1536.873,1523.381z"/>
			<g>
				<g id="XMLID_00000094597167200461668650000014189706030128889515_">
					<path style="fill:#BC7546;" d="M1477.786,874.131c-0.029,0.022-0.028,0.044-0.055,0.066
						c-1.556,1.394-23.612,21.679-32.266,39.326c-8.99,18.28-36.932,36.603-36.935,36.609c-0.049,0.004,0.921-27.984,12.643-40.824
						C1435.154,893.816,1476.491,874.702,1477.786,874.131z"/>
					<path style="fill:#F9C8A9;" d="M1468.795,888.746c-4.993,12.127-7.89,22.582-15.138,35.997
						c-4.227,7.826-24.308,21.303-36.444,24.213c-4.851,1.807-8.685,1.177-8.685,1.177c0.005-0.008,27.945-18.33,36.935-36.61
						c8.653-17.648,30.706-37.932,32.266-39.326C1477.056,875.095,1471.411,882.422,1468.795,888.746z"/>
				</g>
				<g id="XMLID_00000116223447350508149630000005572420937749469113_">
					<path style="fill:#BC7546;" d="M1510.566,932.026c-0.036,0.005-0.054,0.02-0.09,0.024c-2.185,0.298-33.575,4.818-53.583,14.328
						c-20.733,9.872-55.019,9.206-55.019,9.206c-0.028-0.013,22.914-21.934,41.236-25.918
						C1465.118,924.835,1509.18,931.807,1510.566,932.026z"/>
					<path style="fill:#F9C8A9;" d="M1492.817,939.032c-13.004,7.136-23.245,14.024-38.947,20.878
						c-9.159,4.007-34.072,3.835-44.942-0.506c-4.865-1.217-7.053-3.826-7.053-3.826s34.287,0.671,55.019-9.201
						c20.006-9.51,51.398-14.03,53.583-14.328C1509.3,932.416,1499.602,935.318,1492.817,939.032z"/>
				</g>
				<g>
					<g id="XMLID_00000101791296088665228210000004463853391724985228_">
						<path style="fill:#BC7546;" d="M1410.187,913.922c-0.022,0.025-0.02,0.046-0.043,0.071
							c-1.3,1.557-19.512,24.159-24.739,42.532c-5.456,19.028-29.815,40.486-29.813,40.492c-0.05,0.007-4.603-27.552,4.634-41.59
							C1371.194,938.503,1408.986,914.639,1410.187,913.922z"/>
						<path style="fill:#F9C8A9;" d="M1403.988,929.349c-2.661,12.498-3.536,23.101-8.188,37.153
							c-2.719,8.197-20.182,23.911-31.749,28.279c-4.503,2.379-8.46,2.237-8.46,2.237c-0.004-0.007,24.359-21.464,29.813-40.492
							c5.224-18.373,23.44-40.974,24.739-42.532C1409.639,914.957,1405.386,922.831,1403.988,929.349z"/>
					</g>
					<g id="XMLID_00000119823699978087278040000014018499766356825271_">
						<path style="fill:#BC7546;" d="M1454.189,966.602c-0.033,0.008-0.052,0.026-0.086,0.034
							c-2.128,0.561-32.681,8.867-50.85,20.682c-18.816,12.253-53.241,15.877-53.247,15.874
							c-0.035-0.006,18.608-24.365,36.191-30.552C1407.304,965.156,1452.771,966.551,1454.189,966.602z"/>
						<path style="fill:#F9C8A9;" d="M1437.773,975.666c-11.633,8.607-20.544,16.633-34.908,25.307
							c-8.372,5.065-33.313,7.992-45.046,5.091c-5.104-0.587-7.813-2.873-7.813-2.873c0.007,0.004,34.432-3.62,53.247-15.873
							c18.168-11.814,48.722-20.121,50.85-20.682C1452.996,967.141,1443.85,971.181,1437.773,975.666z"/>
					</g>
				</g>
				<g>
					<g id="XMLID_00000152241646082344008500000007268938318880552365_">
						<path style="fill:#BC7546;" d="M1347.035,964.32c-0.016,0.029-0.007,0.048-0.021,0.077
							c-0.83,1.742-12.072,26.923-11.657,45.542c0.359,19.287-17.112,44.652-17.097,44.66c-0.044,0.01-12.986-25.505-8.139-40.749
							C1315.774,995.485,1346.046,965.237,1347.035,964.32z"/>
						<path style="fill:#F9C8A9;" d="M1345.535,980.283c1.132,12.474,3.463,22.793,3.119,37.168
							c-0.213,8.385-12.674,26.875-22.739,33.338c-3.711,3.166-7.658,3.809-7.658,3.809c-0.011-0.008,17.459-25.373,17.099-44.66
							c-0.417-18.619,10.826-43.8,11.657-45.542C1346.803,965.415,1344.953,973.776,1345.535,980.283z"/>
					</g>
					<g id="XMLID_00000176737746186887470890000011403381874558853045_">
						<path style="fill:#BC7546;" d="M1406.358,1006.145c-0.032,0.015-0.045,0.035-0.075,0.05
							c-1.936,0.949-29.636,14.865-43.979,29.754c-14.853,15.429-47.651,25.667-47.651,25.667c-0.052,0,10.87-27.025,26.374-36.4
							C1359.607,1013.893,1404.949,1006.364,1406.358,1006.145z"/>
						<path style="fill:#F9C8A9;" d="M1392.858,1018.035c-8.904,10.524-15.277,19.966-26.807,31.096
							c-6.719,6.496-30.38,14.183-42.827,13.706c-5.207,0.438-8.579-1.22-8.577-1.221c0.009-0.001,32.805-10.238,47.658-25.667
							c14.343-14.89,42.043-28.805,43.979-29.754C1405.34,1006.893,1397.513,1012.549,1392.858,1018.035z"/>
					</g>
				</g>
				<g>
					<g id="XMLID_00000033352531067780738400000017042686535252242590_">
						<path style="fill:#BC7546;" d="M1301.412,1020.723c-0.011,0.03,0.003,0.048-0.009,0.078
							c-0.562,1.798-7.857,27.741-4.474,46.106c3.416,19.03-10.011,45.785-9.994,45.791c-0.039,0.012-17.081-23.994-14.668-39.519
							C1274.983,1054.487,1300.556,1021.722,1301.412,1020.723z"/>
						<path style="fill:#F9C8A9;" d="M1302.431,1036.634c3.111,12.215,7.078,22.192,9.011,36.438
							c1.115,8.31-8.424,27.783-17.457,35.134c-3.208,3.483-7.049,4.495-7.05,4.495c-0.021-0.006,13.408-26.762,9.994-45.791
							c-3.384-18.367,3.915-44.308,4.474-46.106C1301.353,1021.827,1300.818,1030.261,1302.431,1036.634z"/>
					</g>
					<g id="XMLID_00000016756702504365429930000000619442921891704198_">
						<path style="fill:#BC7546;" d="M1367.455,1056.433c-0.031,0.018-0.035,0.04-0.067,0.057
							c-1.793,1.119-27.357,17.496-39.351,33.583c-12.427,16.669-43.581,29.909-43.592,29.914
							c-0.048,0.001,6.547-27.771,20.591-38.513C1321.841,1068.508,1366.079,1056.781,1367.455,1056.433z"/>
						<path style="fill:#F9C8A9;" d="M1355.798,1069.467c-7.266,11.251-12.153,21.192-21.927,33.296
							c-5.695,7.064-28.129,16.906-40.652,17.618c-5.137,0.928-8.775-0.394-8.774-0.393c0.01-0.004,31.165-13.245,43.592-29.914
							c11.992-16.087,37.557-32.463,39.351-33.583C1366.555,1057.269,1359.595,1063.601,1355.798,1069.467z"/>
					</g>
				</g>
				<g>
					<g id="XMLID_00000162338652859906653960000014834550696992549788_">
						<path style="fill:#BC7546;" d="M1266.842,1082.276c0.001,0.03,0.014,0.046,0.011,0.077
							c-0.108,1.835-0.794,28.224,7.212,45.585c8.186,17.999,1.725,46.223,1.753,46.228c-0.025,0.012-22.999-20.714-24.573-36.213
							C1249.146,1119.308,1266.226,1083.378,1266.842,1082.276z"/>
						<path style="fill:#F9C8A9;" d="M1271.866,1097.59c6.168,11.394,12.613,20.482,18.122,34.063
							c3.196,7.922-1.307,28.418-8.353,37.015c-2.28,3.905-5.817,5.497-5.817,5.497c-0.03-0.004,6.434-28.23-1.753-46.229
							c-8.007-17.362-7.32-43.749-7.212-45.585C1267.057,1083.358,1268.656,1091.644,1271.866,1097.59z"/>
					</g>
					<g id="XMLID_00000090981910676646392840000011485481552140614295_">
						<path style="fill:#BC7546;" d="M1341.261,1106.634c-0.025,0.021-0.025,0.043-0.052,0.065
							c-1.5,1.371-22.728,21.344-30.523,38.925c-8.092,18.212-35.46,36.04-35.466,36.046c-0.05,0.007-0.625-28.132,10.555-40.815
							C1299.105,1125.558,1339.981,1107.183,1341.261,1106.634z"/>
						<path style="fill:#F9C8A9;" d="M1332.971,1121.169c-4.378,12.113-6.722,22.578-13.326,35.926
							c-3.853,7.787-23.496,20.914-35.666,23.58c-4.827,1.714-8.761,0.996-8.758,0.996c0.003-0.005,27.373-17.833,35.466-36.046
							c7.793-17.582,29.022-37.553,30.523-38.925C1340.576,1107.59,1335.264,1114.854,1332.971,1121.169z"/>
					</g>
				</g>
				<g>
					<g id="XMLID_00000048492711262476677150000003863476593983563954_">
						<path style="fill:#BC7546;" d="M1247.155,1145.731c0.006,0.03,0.025,0.044,0.029,0.073
							c0.331,1.808,6.055,27.691,18.186,43.493c12.452,16.391,12.94,45.019,12.979,45.02c-0.015,0.011-27.738-16.891-33.09-31.816
							C1238.611,1184.563,1246.796,1146.896,1247.155,1145.731z"/>
						<path style="fill:#F9C8A9;" d="M1255.838,1159.944c8.865,10.218,17.441,18.144,26.167,30.622
							c5.072,7.28,5.589,28.029,0.739,37.501c-1.3,4.166-4.394,6.251-4.394,6.251c-0.039-0.001-0.529-28.629-12.98-45.02
							c-12.131-15.801-17.855-41.686-18.186-43.493C1247.632,1146.755,1251.221,1154.611,1255.838,1159.944z"/>
					</g>
					<g id="XMLID_00000032606736522325224740000000587786575535447999_">
						<path style="fill:#BC7546;" d="M1326.683,1158.472c-0.02,0.025-0.017,0.046-0.037,0.072
							c-1.159,1.562-17.385,24.258-20.828,42.638c-3.608,19.041-26.229,40.575-26.227,40.582c-0.049,0.009-7.485-27.489,0.48-41.564
							C1289.508,1183.237,1325.537,1159.195,1326.683,1158.472z"/>
						<path style="fill:#F9C8A9;" d="M1321.956,1173.93c-1.43,12.51-1.233,23.111-4.534,37.172
							c-1.925,8.201-18.109,23.974-29.444,28.39c-4.342,2.396-8.387,2.273-8.387,2.273c-0.003-0.006,22.618-21.541,26.228-40.582
							c3.444-18.383,19.667-41.074,20.828-42.638C1326.231,1159.51,1322.713,1167.405,1321.956,1173.93z"/>
					</g>
				</g>
				<g>
					<g id="XMLID_00000023980938114970173820000007163646856972895665_">
						<path style="fill:#BC7546;" d="M1246.245,1219.63c0.017,0.028,0.038,0.038,0.053,0.065
							c0.921,1.669,15.098,25.394,32.098,38.159c17.499,13.255,27.49,40.845,27.535,40.84c-0.005,0.006-32.407-10.688-42.592-23.981
							C1250.888,1258.759,1246.268,1220.82,1246.245,1219.63z"/>
						<path style="fill:#F9C8A9;" d="M1259.4,1231.52c11.996,8.014,22.939,13.897,35.521,24.156
							c7.318,5.987,14.69,25.931,13.167,36.08c0.133,4.293-2.154,6.938-2.157,6.938c-0.045,0.005-10.04-27.584-27.535-40.84
							c-17-12.766-31.177-36.492-32.098-38.159C1247.052,1220.516,1253.148,1227.334,1259.4,1231.52z"/>
					</g>
					<g id="XMLID_00000144328291334058143600000001979938151434397583_">
						<path style="fill:#BC7546;" d="M1327.667,1215.596c-0.01,0.029-0.002,0.047-0.012,0.077
							c-0.63,1.746-8.931,26.939-6.185,45.403c2.777,19.133-11.873,44.564-11.856,44.571c-0.042,0.013-16.406-25.067-13.369-40.274
							C1299.718,1247.062,1326.774,1216.525,1327.667,1215.596z"/>
						<path style="fill:#F9C8A9;" d="M1328.136,1231.474c2.713,12.366,6.379,22.57,7.82,36.836
							c0.83,8.323-9.566,26.863-19.016,33.435c-3.387,3.199-7.327,3.901-7.327,3.901c-0.016-0.005,14.631-25.439,11.857-44.571
							c-2.746-18.465,5.556-43.658,6.185-45.403C1327.57,1216.688,1326.728,1225.023,1328.136,1231.474z"/>
					</g>
				</g>
				<g>
					<g id="XMLID_00000160877362555831902260000007668775013265330314_">
						<path style="fill:#BC7546;" d="M1263.895,1282.407c0.018,0.027,0.039,0.037,0.057,0.063
							c1.053,1.628,17.111,24.76,35.141,36.888c18.566,12.598,30.714,39.734,30.756,39.728c-0.002,0.008-33.299-9.537-44.543-22.421
							C1271.58,1321.207,1264.01,1283.591,1263.895,1282.407z"/>
						<path style="fill:#F9C8A9;" d="M1278.01,1293.79c12.651,7.567,24.077,13.046,37.482,22.83
							c7.8,5.71,16.724,25.321,15.983,35.481c0.462,4.272-1.625,6.984-1.626,6.984c-0.045,0.005-12.188-27.13-30.756-39.728
							c-18.031-12.129-34.09-35.259-35.141-36.888C1264.769,1283.261,1271.415,1289.838,1278.01,1293.79z"/>
					</g>
					<g id="XMLID_00000101098604067545197810000000106809789695981231_">
						<path style="fill:#BC7546;" d="M1345.249,1275.583c-0.007,0.028,0.001,0.047-0.006,0.077
							c-0.497,1.758-6.895,27.134-2.72,45.428c4.246,18.962-8.46,44.79-8.445,44.797c-0.042,0.013-18.378-24.405-16.51-39.653
							C1319.63,1307.877,1344.423,1276.538,1345.249,1275.583z"/>
						<path style="fill:#F9C8A9;" d="M1346.934,1291.38c3.669,12.223,8.124,22.26,10.663,36.418
							c1.47,8.261-7.521,27.083-16.48,33.95c-3.149,3.303-7.041,4.136-7.041,4.136c-0.015-0.007,12.692-25.834,8.446-44.797
							c-4.176-18.294,2.224-43.669,2.72-45.428C1345.232,1276.674,1345.031,1285.002,1346.934,1291.38z"/>
					</g>
				</g>
				<g id="XMLID_00000091704382621557126350000017072250508258779321_">
					<path style="fill:#BC7546;" d="M1299.402,1351.253c0.026,0.023,0.053,0.025,0.079,0.048
						c1.605,1.328,25.455,20.039,47.04,27.778c22.275,8.057,43.762,31.691,43.808,31.68c0.007,0.001-35.021-1.94-50.476-11.9
						C1321.097,1386.934,1299.941,1352.358,1299.402,1351.253z"/>
					<path style="fill:#F9C8A9;" d="M1317.046,1359.077c14.829,4.481,27.709,7.236,44.034,13.732
						c9.506,3.792,25.165,20.814,28.21,30.826c2.017,4.037,1.04,7.126,1.04,7.126c-0.044,0.011-21.533-23.624-43.808-31.681
						c-21.59-7.74-45.432-26.451-47.04-27.778C1300.552,1351.881,1309.312,1356.733,1317.046,1359.077z"/>
				</g>
				<g id="XMLID_00000002379850635287443300000004123548429259893424_">
					<path style="fill:#BC7546;" d="M1356.592,1413.147c0.032,0.019,0.054,0.017,0.088,0.035
						c1.901,1.083,29.793,16.229,52.745,20.908c23.707,4.885,50.396,25.334,50.435,25.32c0,0-34.584,2.853-52.1-4.861
						C1386.55,1445.33,1357.392,1414.154,1356.592,1413.147z"/>
					<path style="fill:#F9C8A9;" d="M1375.752,1418.414c15.586,2.366,28.839,3.306,46.354,7.479
						c10.203,2.437,29.608,17.118,35.007,26.61c2.948,3.717,2.747,6.908,2.747,6.908c-0.037,0.012-26.729-20.437-50.435-25.321
						c-22.951-4.68-50.846-19.826-52.745-20.908C1357.871,1413.606,1367.623,1417.172,1375.752,1418.414z"/>
				</g>
				<g id="XMLID_00000094597203977803581040000003092968436683628442_">
					<path style="fill:#BC7546;" d="M1374.401,1326.586c0.002,0.03,0.02,0.045,0.022,0.075c0.154,1.808,3.287,27.721,13.95,44.513
						c10.943,17.415,8.432,45.25,8.465,45.251c-0.021,0.014-26.406-19.63-30.254-34.781
						C1361.749,1363.433,1373.934,1327.688,1374.401,1326.586z"/>
					<path style="fill:#F9C8A9;" d="M1381.739,1341.471c7.933,11.004,15.814,19.732,23.387,32.89
						c4.399,7.677,2.772,27.893-3.158,36.513c-1.757,3.892-5.128,5.552-5.128,5.552c-0.031-0.002,2.48-27.837-8.465-45.252
						c-10.664-16.792-13.795-42.706-13.95-44.513C1374.777,1327.642,1377.607,1335.729,1381.739,1341.471z"/>
				</g>
				<g id="XMLID_00000150073852161810609930000002494137366888932029_">
					<path style="fill:#BC7546;" d="M1420.587,1384c0.007,0.025,0.032,0.035,0.035,0.062c0.531,1.538,8.911,23.514,21.68,36.713
						c13.143,13.699,17.06,38.135,17.091,38.132c-0.011,0.008-26.759-13.748-33.378-26.361
						C1417.89,1417.394,1420.423,1385.01,1420.587,1384z"/>
					<path style="fill:#F9C8A9;" d="M1430.131,1395.931c9.19,8.51,17.83,15.073,27.156,25.519
						c5.425,6.095,8.433,23.808,5.263,32.013c-0.65,3.589-3.157,5.443-3.157,5.443c-0.029,0.003-3.948-24.435-17.09-38.132
						c-12.767-13.199-21.149-35.174-21.68-36.713C1421.142,1384.863,1425.343,1391.487,1430.131,1395.931z"/>
				</g>
			</g>
			<g>
				<g id="XMLID_00000155125752657406383890000003728617111860715190_">
					<path style="fill:#BC7546;" d="M1582.884,874.131c0.029,0.022,0.028,0.044,0.055,0.066
						c1.556,1.394,23.612,21.679,32.266,39.326c8.99,18.28,36.932,36.603,36.935,36.609c0.049,0.004-0.921-27.984-12.643-40.824
						C1625.515,893.816,1584.179,874.702,1582.884,874.131z"/>
					<path style="fill:#F9C8A9;" d="M1591.874,888.746c4.992,12.127,7.89,22.582,15.137,35.997
						c4.226,7.826,24.308,21.303,36.444,24.213c4.851,1.807,8.685,1.177,8.684,1.176c-0.005-0.007-27.944-18.329-36.935-36.609
						c-8.653-17.648-30.707-37.932-32.266-39.326C1583.613,875.095,1589.259,882.422,1591.874,888.746z"/>
				</g>
				<g id="XMLID_00000171679718349788459830000000718171227128208807_">
					<path style="fill:#BC7546;" d="M1550.103,932.026c0.036,0.005,0.055,0.02,0.09,0.024c2.185,0.298,33.574,4.818,53.583,14.328
						c20.733,9.872,55.019,9.206,55.019,9.206c0.028-0.013-22.914-21.934-41.237-25.918
						C1595.551,924.835,1551.489,931.807,1550.103,932.026z"/>
					<path style="fill:#F9C8A9;" d="M1567.853,939.032c13.003,7.136,23.245,14.024,38.947,20.878
						c9.159,4.007,34.072,3.835,44.942-0.506c4.864-1.217,7.053-3.826,7.053-3.826s-34.287,0.671-55.018-9.201
						c-20.006-9.51-51.398-14.03-53.583-14.328C1551.369,932.416,1561.067,935.318,1567.853,939.032z"/>
				</g>
				<g>
					<g id="XMLID_00000021824706466311353710000006196116832194858416_">
						<path style="fill:#BC7546;" d="M1650.483,913.922c0.022,0.025,0.02,0.046,0.043,0.071c1.3,1.557,19.512,24.159,24.739,42.532
							c5.456,19.028,29.815,40.486,29.813,40.492c0.05,0.007,4.604-27.552-4.634-41.59
							C1689.476,938.503,1651.683,914.639,1650.483,913.922z"/>
						<path style="fill:#F9C8A9;" d="M1656.681,929.349c2.661,12.498,3.536,23.101,8.188,37.153
							c2.718,8.197,20.181,23.911,31.749,28.279c4.503,2.379,8.46,2.237,8.46,2.237c0.004-0.007-24.359-21.464-29.813-40.492
							c-5.224-18.373-23.44-40.974-24.739-42.532C1651.031,914.957,1655.282,922.831,1656.681,929.349z"/>
					</g>
					<g id="XMLID_00000042015672034836792530000008928242187539155899_">
						<path style="fill:#BC7546;" d="M1606.481,966.602c0.032,0.008,0.052,0.026,0.086,0.034c2.128,0.561,32.681,8.867,50.85,20.682
							c18.816,12.253,53.241,15.877,53.247,15.874c0.034-0.006-18.608-24.365-36.191-30.552
							C1653.365,965.156,1607.899,966.551,1606.481,966.602z"/>
						<path style="fill:#F9C8A9;" d="M1622.896,975.666c11.634,8.607,20.544,16.633,34.909,25.307
							c8.371,5.065,33.313,7.992,45.046,5.091c5.104-0.587,7.813-2.873,7.813-2.873c-0.007,0.004-34.432-3.62-53.247-15.873
							c-18.168-11.814-48.722-20.121-50.85-20.682C1607.673,967.141,1616.819,971.181,1622.896,975.666z"/>
					</g>
				</g>
				<g>
					<g id="XMLID_00000163792812193131725330000002668774827037818265_">
						<path style="fill:#BC7546;" d="M1713.634,964.32c0.016,0.029,0.007,0.048,0.021,0.077
							c0.831,1.742,12.073,26.923,11.657,45.542c-0.358,19.287,17.112,44.652,17.097,44.66c0.044,0.01,12.986-25.505,8.139-40.749
							C1744.896,995.485,1714.624,965.237,1713.634,964.32z"/>
						<path style="fill:#F9C8A9;" d="M1715.135,980.283c-1.133,12.474-3.463,22.793-3.119,37.168
							c0.212,8.385,12.674,26.875,22.739,33.338c3.711,3.166,7.657,3.809,7.657,3.809c0.011-0.008-17.459-25.373-17.1-44.66
							c0.418-18.619-10.825-43.8-11.657-45.542C1713.866,965.415,1715.716,973.776,1715.135,980.283z"/>
					</g>
					<g id="XMLID_00000112633914193137229310000003952674025953698708_">
						<path style="fill:#BC7546;" d="M1654.311,1006.145c0.031,0.015,0.045,0.035,0.075,0.05
							c1.935,0.949,29.636,14.865,43.978,29.754c14.854,15.429,47.651,25.667,47.658,25.667c0.046,0-10.876-27.025-26.38-36.4
							C1701.062,1013.893,1655.72,1006.364,1654.311,1006.145z"/>
						<path style="fill:#F9C8A9;" d="M1667.811,1018.035c8.905,10.524,15.276,19.966,26.806,31.096
							c6.719,6.496,30.381,14.183,42.827,13.706c5.208,0.438,8.58-1.22,8.577-1.221c-0.009-0.001-32.804-10.238-47.658-25.667
							c-14.342-14.89-42.042-28.805-43.978-29.754C1655.329,1006.893,1663.156,1012.549,1667.811,1018.035z"/>
					</g>
				</g>
				<g>
					<g id="XMLID_00000021113575022722678470000000729092529971902120_">
						<path style="fill:#BC7546;" d="M1759.257,1020.723c0.011,0.03-0.003,0.048,0.008,0.078c0.562,1.798,7.858,27.741,4.474,46.106
							c-3.416,19.03,10.011,45.785,9.994,45.791c0.039,0.012,17.081-23.994,14.668-39.519
							C1785.687,1054.487,1760.113,1021.722,1759.257,1020.723z"/>
						<path style="fill:#F9C8A9;" d="M1758.238,1036.634c-3.111,12.215-7.077,22.192-9.01,36.438
							c-1.116,8.31,8.424,27.783,17.456,35.134c3.209,3.483,7.05,4.495,7.051,4.495c0.02-0.006-13.408-26.762-9.994-45.791
							c3.384-18.367-3.915-44.308-4.474-46.106C1759.317,1021.827,1759.851,1030.261,1758.238,1036.634z"/>
					</g>
					<g id="XMLID_00000108989670726781037010000015585484025773108623_">
						<path style="fill:#BC7546;" d="M1693.214,1056.433c0.031,0.018,0.035,0.04,0.067,0.057
							c1.793,1.119,27.357,17.496,39.351,33.583c12.427,16.669,43.581,29.909,43.592,29.914c0.048,0.001-6.547-27.771-20.591-38.513
							C1738.829,1068.508,1694.59,1056.781,1693.214,1056.433z"/>
						<path style="fill:#F9C8A9;" d="M1704.871,1069.467c7.266,11.251,12.153,21.192,21.927,33.296
							c5.695,7.064,28.129,16.906,40.652,17.618c5.138,0.928,8.775-0.394,8.775-0.394c-0.012-0.003-31.167-13.245-43.593-29.913
							c-11.992-16.087-37.557-32.463-39.351-33.583C1694.115,1057.269,1701.074,1063.601,1704.871,1069.467z"/>
					</g>
				</g>
				<g>
					<g id="XMLID_00000129182748294215741240000003947862672131310982_">
						<path style="fill:#BC7546;" d="M1793.827,1082.276c-0.001,0.03-0.014,0.046-0.011,0.077
							c0.107,1.835,0.794,28.224-7.213,45.585c-8.185,17.999-1.724,46.223-1.752,46.228c0.025,0.012,22.999-20.714,24.573-36.213
							C1811.523,1119.308,1794.443,1083.378,1793.827,1082.276z"/>
						<path style="fill:#F9C8A9;" d="M1788.803,1097.59c-6.168,11.394-12.613,20.482-18.121,34.063
							c-3.197,7.922,1.307,28.418,8.353,37.015c2.28,3.905,5.817,5.497,5.817,5.497c0.03-0.004-6.434-28.23,1.752-46.229
							c8.008-17.362,7.32-43.749,7.213-45.585C1793.612,1083.358,1792.012,1091.644,1788.803,1097.59z"/>
					</g>
					<g id="XMLID_00000116203575153389794960000013441550503599080631_">
						<path style="fill:#BC7546;" d="M1719.408,1106.634c0.025,0.021,0.025,0.043,0.052,0.065
							c1.5,1.371,22.727,21.344,30.523,38.925c8.092,18.212,35.46,36.04,35.466,36.046c0.05,0.007,0.625-28.132-10.555-40.815
							C1761.565,1125.558,1720.688,1107.183,1719.408,1106.634z"/>
						<path style="fill:#F9C8A9;" d="M1727.699,1121.169c4.378,12.113,6.723,22.578,13.326,35.926
							c3.853,7.787,23.496,20.914,35.665,23.58c4.828,1.714,8.761,0.996,8.761,0.996c-0.006-0.005-27.376-17.833-35.468-36.046
							c-7.794-17.582-29.022-37.553-30.523-38.925C1720.093,1107.59,1725.405,1114.854,1727.699,1121.169z"/>
					</g>
				</g>
				<g>
					<g id="XMLID_00000007411053893892380760000014226253618997169289_">
						<path style="fill:#BC7546;" d="M1813.515,1145.731c-0.006,0.03-0.025,0.044-0.029,0.073
							c-0.331,1.808-6.055,27.691-18.186,43.493c-12.452,16.391-12.94,45.019-12.979,45.02c0.014,0.011,27.737-16.891,33.09-31.816
							C1822.059,1184.563,1813.873,1146.896,1813.515,1145.731z"/>
						<path style="fill:#F9C8A9;" d="M1804.831,1159.944c-8.864,10.218-17.44,18.144-26.166,30.622
							c-5.072,7.28-5.589,28.029-0.739,37.501c1.3,4.166,4.393,6.251,4.393,6.251c0.04-0.001,0.529-28.629,12.981-45.02
							c12.13-15.801,17.855-41.686,18.186-43.493C1813.037,1146.755,1809.449,1154.611,1804.831,1159.944z"/>
					</g>
					<g id="XMLID_00000163783886525502722000000005413159068572981634_">
						<path style="fill:#BC7546;" d="M1733.986,1158.472c0.02,0.025,0.016,0.046,0.037,0.072
							c1.159,1.562,17.385,24.258,20.827,42.638c3.609,19.041,26.23,40.575,26.23,40.575c0.046,0.016,7.483-27.482-0.482-41.557
							C1771.161,1183.237,1735.132,1159.195,1733.986,1158.472z"/>
						<path style="fill:#F9C8A9;" d="M1738.714,1173.93c1.43,12.51,1.233,23.111,4.533,37.172
							c1.926,8.201,18.108,23.974,29.444,28.39c4.342,2.396,8.387,2.273,8.387,2.273c0.003-0.006-22.618-21.541-26.228-40.582
							c-3.444-18.383-19.666-41.074-20.827-42.638C1734.438,1159.51,1737.957,1167.405,1738.714,1173.93z"/>
					</g>
				</g>
				<g>
					<g id="XMLID_00000118391029863075893310000010797917347553988280_">
						<path style="fill:#BC7546;" d="M1814.425,1219.63c-0.017,0.028-0.038,0.038-0.053,0.065
							c-0.92,1.669-15.098,25.394-32.098,38.159c-17.499,13.255-27.49,40.845-27.535,40.84c0.005,0.006,32.407-10.688,42.592-23.981
							C1809.781,1258.759,1814.4,1220.82,1814.425,1219.63z"/>
						<path style="fill:#F9C8A9;" d="M1801.27,1231.52c-11.996,8.014-22.94,13.897-35.521,24.156
							c-7.318,5.987-14.69,25.931-13.168,36.08c-0.132,4.293,2.155,6.938,2.157,6.938c0.045,0.005,10.039-27.584,27.535-40.84
							c17-12.766,31.176-36.492,32.098-38.159C1813.617,1220.516,1807.521,1227.334,1801.27,1231.52z"/>
					</g>
					<g id="XMLID_00000138553455298531848160000008877645382693143977_">
						<path style="fill:#BC7546;" d="M1733.003,1215.596c0.01,0.029,0.002,0.047,0.011,0.077c0.63,1.746,8.931,26.939,6.185,45.403
							c-2.777,19.133,11.873,44.564,11.856,44.571c0.042,0.013,16.406-25.067,13.369-40.274
							C1760.951,1247.062,1733.896,1216.525,1733.003,1215.596z"/>
						<path style="fill:#F9C8A9;" d="M1732.533,1231.474c-2.713,12.366-6.378,22.57-7.82,36.836
							c-0.829,8.323,9.567,26.863,19.016,33.435c3.387,3.199,7.327,3.901,7.327,3.901c0.017-0.005-14.63-25.439-11.856-44.571
							c2.746-18.465-5.555-43.658-6.185-45.403C1733.1,1216.688,1733.942,1225.023,1732.533,1231.474z"/>
					</g>
				</g>
				<g>
					<g id="XMLID_00000020364130934754105520000013837026546132991364_">
						<path style="fill:#BC7546;" d="M1796.774,1282.407c-0.018,0.027-0.039,0.037-0.058,0.063
							c-1.052,1.628-17.11,24.76-35.141,36.888c-18.566,12.598-30.714,39.734-30.756,39.728c0.002,0.008,33.299-9.537,44.543-22.421
							C1789.089,1321.207,1796.659,1283.591,1796.774,1282.407z"/>
						<path style="fill:#F9C8A9;" d="M1782.66,1293.79c-12.651,7.567-24.077,13.046-37.483,22.83
							c-7.799,5.71-16.723,25.321-15.983,35.481c-0.463,4.272,1.625,6.984,1.626,6.984c0.045,0.005,12.188-27.13,30.756-39.728
							c18.03-12.129,34.09-35.259,35.141-36.888C1795.9,1283.261,1789.254,1289.838,1782.66,1293.79z"/>
					</g>
					<g id="XMLID_00000090287338215557841700000009041655607811412099_">
						<path style="fill:#BC7546;" d="M1715.421,1275.583c0.007,0.028-0.002,0.047,0.005,0.077c0.498,1.758,6.896,27.134,2.72,45.428
							c-4.246,18.962,8.46,44.79,8.444,44.797c0.042,0.013,18.379-24.405,16.51-39.653
							C1741.039,1307.877,1716.246,1276.538,1715.421,1275.583z"/>
						<path style="fill:#F9C8A9;" d="M1713.734,1291.38c-3.668,12.223-8.123,22.26-10.662,36.418
							c-1.471,8.261,7.521,27.083,16.48,33.95c3.149,3.303,7.04,4.136,7.04,4.136c0.015-0.007-12.692-25.834-8.446-44.797
							c4.176-18.294-2.224-43.669-2.72-45.428C1715.438,1276.674,1715.637,1285.002,1713.734,1291.38z"/>
					</g>
				</g>
				<g id="XMLID_00000125585897341156224910000009595205728297896858_">
					<path style="fill:#BC7546;" d="M1761.266,1351.253c-0.025,0.023-0.052,0.025-0.078,0.048
						c-1.605,1.328-25.455,20.039-47.041,27.778c-22.274,8.057-43.761,31.691-43.808,31.68c0,0,35.021-1.94,50.476-11.9
						C1739.572,1386.934,1760.728,1352.358,1761.266,1351.253z"/>
					<path style="fill:#F9C8A9;" d="M1743.624,1359.077c-14.83,4.481-27.709,7.236-44.035,13.732
						c-9.505,3.792-25.165,20.814-28.21,30.826c-2.016,4.037-1.039,7.126-1.039,7.126c0.044,0.011,21.532-23.624,43.808-31.681
						c21.59-7.74,45.433-26.451,47.041-27.778C1760.117,1351.881,1751.356,1356.733,1743.624,1359.077z"/>
				</g>
				<g id="XMLID_00000134241433150482455470000007575606022995451065_">
					<path style="fill:#BC7546;" d="M1704.078,1413.147c-0.033,0.019-0.055,0.017-0.088,0.035
						c-1.901,1.083-29.793,16.229-52.745,20.908c-23.707,4.885-50.396,25.334-50.435,25.32c0,0,34.584,2.853,52.099-4.861
						C1674.119,1445.33,1703.278,1414.154,1704.078,1413.147z"/>
					<path style="fill:#F9C8A9;" d="M1684.917,1418.414c-15.586,2.366-28.839,3.306-46.355,7.479
						c-10.203,2.437-29.608,17.118-35.007,26.61c-2.949,3.717-2.747,6.908-2.747,6.908c0.038,0.012,26.729-20.437,50.436-25.321
						c22.951-4.68,50.845-19.826,52.745-20.908C1702.798,1413.606,1693.046,1417.172,1684.917,1418.414z"/>
				</g>
				<g id="XMLID_00000000185159501258203830000013798994693268906112_">
					<path style="fill:#BC7546;" d="M1686.268,1326.586c-0.001,0.03-0.02,0.045-0.021,0.075
						c-0.154,1.808-3.287,27.721-13.951,44.513c-10.943,17.415-8.432,45.25-8.464,45.251c0.021,0.014,26.406-19.63,30.253-34.781
						C1698.92,1363.433,1686.735,1327.688,1686.268,1326.586z"/>
					<path style="fill:#F9C8A9;" d="M1678.931,1341.471c-7.932,11.004-15.814,19.732-23.387,32.89
						c-4.399,7.677-2.772,27.893,3.158,36.513c1.758,3.892,5.129,5.552,5.129,5.552c0.031-0.002-2.48-27.837,8.464-45.252
						c10.664-16.792,13.795-42.706,13.951-44.513C1685.891,1327.642,1683.061,1335.729,1678.931,1341.471z"/>
				</g>
				<g id="XMLID_00000119096435128621557550000009689624685518310560_">
					<path style="fill:#BC7546;" d="M1640.082,1384c-0.006,0.025-0.031,0.035-0.035,0.062c-0.532,1.538-8.911,23.514-21.681,36.713
						c-13.142,13.699-17.059,38.135-17.09,38.132c0.011,0.008,26.759-13.748,33.378-26.361
						C1642.779,1417.394,1640.246,1385.01,1640.082,1384z"/>
					<path style="fill:#F9C8A9;" d="M1630.539,1395.931c-9.19,8.51-17.831,15.073-27.156,25.519
						c-5.426,6.095-8.434,23.808-5.263,32.013c0.65,3.589,3.157,5.443,3.157,5.443c0.029,0.003,3.948-24.435,17.089-38.132
						c12.768-13.199,21.15-35.174,21.681-36.713C1639.526,1384.863,1635.327,1391.487,1630.539,1395.931z"/>
				</g>
			</g>
			<path style="fill:#BC7546;" d="M1588.799,1465.831c0,13.643-25.804,24.703-57.636,24.703c-31.832,0-57.637-11.06-57.637-24.703
				s25.805-24.703,57.637-24.703C1562.994,1441.129,1588.799,1452.188,1588.799,1465.831z"/>
			<path style="fill:#F9C8A9;" d="M1531.162,1486.215c-31.421,0-53.317-10.742-53.317-20.384c0-9.64,21.896-20.383,53.317-20.383
				c31.421,0,53.318,10.743,53.318,20.383C1584.479,1475.473,1562.582,1486.215,1531.162,1486.215z"/>
		</g>
		<g>
			<path style="fill:#BC7546;" d="M1412.604,1325.778v-67.818l6.354-4.599c60.248-43.599,121.83-92.794,121.83-127.165
				c0-5.755,0-23.274-29.074-23.274c-18.809,0-42.075,8.171-62.243,21.849l-3.909,2.648h-25.892v-85.442l9.221-4.021
				c25.794-11.255,61.935-18.239,94.325-18.239c74.863,0,119.557,36.283,119.557,97.056c0,51.574-36.066,92.232-78.351,126.594
				h90.866v82.411H1412.604z"/>
			<path style="fill:#F9C8A9;" d="M1639.923,1310.41h-211.955v-44.601c72.603-52.543,128.186-99.816,128.186-139.609
				c0-48.457-63.622-49.197-115.312-14.145h-5.802v-60.016c54.894-23.95,192.37-37.257,192.37,64.731
				c0,57.402-53.621,102.368-108.786,141.964h121.298V1310.41z"/>
		</g>
	</g>
	<g>
		<g>
			<g id="XMLID_00000023268195212187157670000012633138282405367739_">
				<polygon style="fill:#ED3948;" points="2713.789,447.796 2588.39,797.977 2518.713,797.977 2643.745,448.081 2643.745,447.796 
									"/>
				<polygon style="fill:#F0F0F0;" points="2643.745,447.796 2643.745,448.081 2518.713,797.977 2449.911,797.977 2574.944,448.081 
					2574.944,447.796 				"/>
				<polygon style="fill:#153395;" points="2574.944,447.796 2574.944,448.081 2449.911,797.977 2379.623,797.977 2505.022,447.796 
									"/>
			</g>
			<path style="fill:#C9C9C9;" d="M2637.368,803.192c9.209,20.537,14.323,42.642,15.138,65.073
				c-49.284-25.181-105.128-39.382-164.272-39.382c-62.445,0-121.182,15.83-172.421,43.66c0.265-23.898,5.46-47.511,15.24-69.352
				l4.564-10.166c5.093-11.389,15.688-19.355,28.054-21.086l13.467-1.895c71.022-9.942,143.124-9.942,214.166,0l13.447,1.895
				c12.367,1.732,22.961,9.697,28.055,21.086L2637.368,803.192z M2601.124,813.195V799.83c0-3.871-3.138-7.008-7.008-7.008h-219.81
				c-3.871,0-7.009,3.137-7.009,7.008v13.365c0,3.891,3.138,7.029,7.009,7.029h219.81
				C2597.986,820.224,2601.124,817.087,2601.124,813.195z"/>
			<g id="XMLID_00000119815111474984913900000001767780902800726458_">
				<polygon style="fill:#153395;" points="2254.201,447.796 2379.6,797.977 2449.277,797.977 2324.246,448.081 2324.246,447.796 
									"/>
				<polygon style="fill:#F0F0F0;" points="2324.246,447.796 2324.246,448.081 2449.277,797.977 2518.079,797.977 2393.046,448.081 
					2393.046,447.796 				"/>
				<polygon style="fill:#ED3948;" points="2393.046,447.796 2393.046,448.081 2518.079,797.977 2588.368,797.977 2462.969,447.796 
									"/>
			</g>
			<path style="fill:#B8B8B8;" d="M2654.968,868.266c117.168,59.816,197.399,181.67,197.399,322.267
				c0,199.742-161.929,361.671-361.67,361.671c-199.742,0-361.651-161.928-361.651-361.671c0-137.297,76.503-256.727,189.229-317.99
				c51.24-27.83,109.976-43.66,172.421-43.66C2549.841,828.883,2605.685,843.083,2654.968,868.266z"/>
			<path style="fill:#C9C9C9;" d="M2490.697,1523.381c-88.905,0-172.485-34.623-235.347-97.49
				c-62.862-62.866-97.481-146.452-97.481-235.358c0-122.136,66.734-234.275,174.158-292.656
				c48.385-26.28,103.253-40.172,158.669-40.172c53.253,0,104.114,12.191,151.169,36.235
				c53.815,27.473,99.212,69.117,131.291,120.433c32.964,52.734,50.388,113.649,50.388,176.161
				c0,88.905-34.623,172.49-97.49,235.358C2663.187,1488.759,2579.602,1523.381,2490.697,1523.381z"/>
			<g>
				<g id="XMLID_00000169529076365035306960000009187279803838896046_">
					<path style="fill:#929292;" d="M2431.611,874.131c-0.029,0.022-0.028,0.044-0.055,0.066
						c-1.556,1.394-23.612,21.679-32.266,39.326c-8.99,18.279-36.932,36.603-36.935,36.609c-0.049,0.004,0.921-27.985,12.643-40.824
						C2388.979,893.816,2430.315,874.702,2431.611,874.131z"/>
					<path style="fill:#E6E6E6;" d="M2422.62,888.745c-4.993,12.128-7.89,22.583-15.138,35.998
						c-4.227,7.826-24.308,21.303-36.444,24.213c-4.851,1.807-8.685,1.177-8.685,1.177c0.005-0.008,27.945-18.33,36.936-36.61
						c8.653-17.648,30.706-37.932,32.266-39.326C2430.881,875.095,2425.235,882.421,2422.62,888.745z"/>
				</g>
				<g id="XMLID_00000137131981141852493160000001007354562358161597_">
					<path style="fill:#929292;" d="M2464.391,932.026c-0.036,0.005-0.054,0.02-0.09,0.024c-2.185,0.298-33.575,4.818-53.583,14.328
						c-20.733,9.872-55.019,9.206-55.019,9.206c-0.028-0.013,22.914-21.934,41.236-25.918
						C2418.943,924.835,2463.005,931.807,2464.391,932.026z"/>
					<path style="fill:#E6E6E6;" d="M2446.641,939.032c-13.004,7.136-23.244,14.024-38.947,20.877
						c-9.159,4.007-34.072,3.836-44.942-0.505c-4.865-1.217-7.053-3.826-7.053-3.826s34.287,0.671,55.019-9.201
						c20.006-9.51,51.397-14.03,53.583-14.328C2463.125,932.416,2453.427,935.318,2446.641,939.032z"/>
				</g>
				<g>
					<g id="XMLID_00000141416828833736993320000015796673201459235992_">
						<path style="fill:#929292;" d="M2364.011,913.922c-0.022,0.025-0.02,0.046-0.043,0.071
							c-1.3,1.557-19.512,24.159-24.739,42.532c-5.456,19.028-29.815,40.486-29.813,40.492c-0.05,0.007-4.604-27.552,4.634-41.59
							C2325.019,938.503,2362.811,914.639,2364.011,913.922z"/>
						<path style="fill:#E6E6E6;" d="M2357.813,929.349c-2.661,12.498-3.536,23.1-8.188,37.153
							c-2.719,8.197-20.182,23.911-31.75,28.279c-4.503,2.379-8.46,2.237-8.46,2.237c-0.004-0.007,24.359-21.464,29.813-40.492
							c5.224-18.373,23.44-40.974,24.739-42.532C2363.463,914.957,2359.211,922.831,2357.813,929.349z"/>
					</g>
					<g id="XMLID_00000042014857705506628580000008034626565371728798_">
						<path style="fill:#929292;" d="M2408.013,966.602c-0.033,0.008-0.052,0.027-0.086,0.034
							c-2.128,0.56-32.681,8.867-50.85,20.682c-18.816,12.253-53.24,15.877-53.247,15.874c-0.035-0.006,18.608-24.365,36.191-30.552
							C2361.129,965.156,2406.595,966.551,2408.013,966.602z"/>
						<path style="fill:#E6E6E6;" d="M2391.597,975.666c-11.633,8.607-20.544,16.633-34.908,25.307
							c-8.372,5.065-33.313,7.992-45.046,5.091c-5.104-0.587-7.813-2.873-7.813-2.873c0.007,0.004,34.431-3.62,53.247-15.873
							c18.169-11.814,48.722-20.121,50.85-20.682C2406.821,967.141,2397.675,971.181,2391.597,975.666z"/>
					</g>
				</g>
				<g>
					<g id="XMLID_00000142140577930487899510000016636675795822993068_">
						<path style="fill:#929292;" d="M2300.86,964.32c-0.016,0.029-0.007,0.048-0.021,0.077
							c-0.83,1.742-12.072,26.923-11.657,45.542c0.359,19.287-17.112,44.652-17.096,44.66c-0.044,0.01-12.987-25.505-8.139-40.749
							C2269.598,995.485,2299.87,965.237,2300.86,964.32z"/>
						<path style="fill:#E6E6E6;" d="M2299.359,980.283c1.132,12.474,3.463,22.793,3.119,37.167
							c-0.213,8.386-12.674,26.876-22.739,33.339c-3.711,3.166-7.657,3.809-7.657,3.809c-0.011-0.008,17.459-25.373,17.099-44.66
							c-0.417-18.619,10.826-43.8,11.657-45.542C2300.628,965.415,2298.778,973.776,2299.359,980.283z"/>
					</g>
					<g id="XMLID_00000145773036243771608990000012363948371778627755_">
						<path style="fill:#929292;" d="M2360.183,1006.145c-0.032,0.015-0.044,0.035-0.075,0.049
							c-1.936,0.95-29.636,14.866-43.979,29.755c-14.853,15.429-47.651,25.667-47.651,25.667c-0.052,0,10.87-27.025,26.374-36.4
							C2313.432,1013.893,2358.774,1006.364,2360.183,1006.145z"/>
						<path style="fill:#E6E6E6;" d="M2346.683,1018.035c-8.904,10.524-15.277,19.966-26.807,31.095
							c-6.719,6.497-30.38,14.183-42.827,13.707c-5.208,0.438-8.579-1.22-8.577-1.221c0.008-0.001,32.805-10.238,47.657-25.667
							c14.343-14.89,42.043-28.806,43.979-29.755C2359.165,1006.893,2351.338,1012.549,2346.683,1018.035z"/>
					</g>
				</g>
				<g>
					<g id="XMLID_00000038410294420559172020000008677750036965433486_">
						<path style="fill:#929292;" d="M2255.237,1020.723c-0.011,0.03,0.003,0.048-0.009,0.078
							c-0.562,1.798-7.857,27.741-4.474,46.106c3.416,19.03-10.011,45.785-9.994,45.791c-0.039,0.012-17.081-23.994-14.668-39.519
							C2228.808,1054.487,2254.381,1021.722,2255.237,1020.723z"/>
						<path style="fill:#E6E6E6;" d="M2256.255,1036.634c3.112,12.215,7.078,22.192,9.011,36.438
							c1.115,8.31-8.424,27.783-17.457,35.134c-3.208,3.483-7.049,4.495-7.049,4.495c-0.021-0.007,13.407-26.763,9.993-45.792
							c-3.384-18.367,3.915-44.308,4.474-46.106C2255.177,1021.827,2254.643,1030.261,2256.255,1036.634z"/>
					</g>
					<g id="XMLID_00000155846220053909594990000011360176284200097213_">
						<path style="fill:#929292;" d="M2321.28,1056.433c-0.031,0.018-0.035,0.04-0.067,0.057
							c-1.793,1.119-27.357,17.496-39.351,33.583c-12.427,16.669-43.581,29.909-43.592,29.914
							c-0.048,0.001,6.547-27.771,20.591-38.513C2275.665,1068.508,2319.903,1056.781,2321.28,1056.433z"/>
						<path style="fill:#E6E6E6;" d="M2309.623,1069.467c-7.266,11.252-12.153,21.192-21.927,33.297
							c-5.695,7.064-28.129,16.906-40.651,17.618c-5.137,0.928-8.775-0.394-8.774-0.393c0.01-0.004,31.166-13.245,43.592-29.914
							c11.992-16.087,37.557-32.463,39.351-33.583C2320.38,1057.269,2313.42,1063.601,2309.623,1069.467z"/>
					</g>
				</g>
				<g>
					<g id="XMLID_00000029748443159680735640000003218927099906512059_">
						<path style="fill:#929292;" d="M2220.667,1082.276c0.001,0.03,0.014,0.046,0.011,0.077
							c-0.107,1.835-0.794,28.224,7.212,45.585c8.186,17.999,1.725,46.223,1.753,46.228c-0.025,0.012-22.999-20.714-24.573-36.214
							C2202.971,1119.308,2220.051,1083.378,2220.667,1082.276z"/>
						<path style="fill:#E6E6E6;" d="M2225.691,1097.59c6.168,11.394,12.613,20.482,18.122,34.063
							c3.196,7.922-1.308,28.418-8.353,37.015c-2.28,3.905-5.817,5.496-5.817,5.496c-0.03-0.003,6.435-28.229-1.753-46.228
							c-8.007-17.362-7.319-43.749-7.212-45.585C2220.882,1083.358,2222.481,1091.644,2225.691,1097.59z"/>
					</g>
					<g id="XMLID_00000017483096125943240490000007807618096426835076_">
						<path style="fill:#929292;" d="M2295.086,1106.634c-0.025,0.021-0.025,0.043-0.052,0.065
							c-1.5,1.371-22.728,21.344-30.523,38.925c-8.093,18.212-35.46,36.04-35.466,36.046c-0.05,0.007-0.625-28.132,10.555-40.815
							C2252.929,1125.558,2293.806,1107.183,2295.086,1106.634z"/>
						<path style="fill:#E6E6E6;" d="M2286.795,1121.169c-4.378,12.113-6.722,22.578-13.326,35.926
							c-3.853,7.787-23.496,20.914-35.666,23.58c-4.827,1.714-8.761,0.996-8.759,0.996c0.003-0.005,27.373-17.833,35.466-36.046
							c7.793-17.582,29.022-37.553,30.523-38.925C2294.401,1107.59,2289.089,1114.854,2286.795,1121.169z"/>
					</g>
				</g>
				<g>
					<g id="XMLID_00000080926263635213927800000005041051022936275635_">
						<path style="fill:#929292;" d="M2200.979,1145.73c0.006,0.031,0.025,0.044,0.029,0.074
							c0.331,1.808,6.055,27.691,18.186,43.493c12.452,16.391,12.94,45.018,12.979,45.02c-0.015,0.011-27.738-16.891-33.09-31.816
							C2192.435,1184.563,2200.621,1146.896,2200.979,1145.73z"/>
						<path style="fill:#E6E6E6;" d="M2209.663,1159.944c8.865,10.217,17.441,18.144,26.167,30.622
							c5.072,7.28,5.589,28.029,0.739,37.501c-1.3,4.165-4.394,6.251-4.394,6.251c-0.039-0.001-0.529-28.629-12.98-45.02
							c-12.131-15.801-17.855-41.686-18.186-43.493C2201.457,1146.755,2205.045,1154.611,2209.663,1159.944z"/>
					</g>
					<g id="XMLID_00000016754908729355003230000002360371394802465684_">
						<path style="fill:#929292;" d="M2280.508,1158.472c-0.02,0.025-0.017,0.046-0.037,0.072
							c-1.159,1.562-17.385,24.258-20.827,42.637c-3.608,19.042-26.229,40.576-26.227,40.583c-0.049,0.009-7.485-27.489,0.48-41.564
							C2243.333,1183.237,2279.362,1159.195,2280.508,1158.472z"/>
						<path style="fill:#E6E6E6;" d="M2275.781,1173.93c-1.43,12.51-1.233,23.111-4.534,37.172
							c-1.925,8.201-18.108,23.974-29.444,28.39c-4.342,2.395-8.387,2.273-8.387,2.273c-0.003-0.006,22.618-21.541,26.228-40.583
							c3.444-18.382,19.667-41.073,20.827-42.637C2280.055,1159.51,2276.537,1167.405,2275.781,1173.93z"/>
					</g>
				</g>
				<g>
					<g id="XMLID_00000029019840230840338800000012824672663966977205_">
						<path style="fill:#929292;" d="M2200.069,1219.63c0.017,0.027,0.038,0.038,0.053,0.065
							c0.92,1.668,15.098,25.393,32.098,38.159c17.499,13.255,27.49,40.845,27.535,40.84c-0.005,0.006-32.407-10.688-42.592-23.981
							C2204.713,1258.758,2200.093,1220.82,2200.069,1219.63z"/>
						<path style="fill:#E6E6E6;" d="M2213.224,1231.52c11.996,8.015,22.939,13.898,35.521,24.156
							c7.318,5.987,14.69,25.931,13.167,36.08c0.133,4.293-2.154,6.938-2.154,6.938c-0.048,0.005-10.042-27.584-27.538-40.84
							c-17-12.766-31.177-36.492-32.098-38.159C2200.876,1220.516,2206.973,1227.333,2213.224,1231.52z"/>
					</g>
					<g id="XMLID_00000019680398432840720520000004498118077460070831_">
						<path style="fill:#929292;" d="M2281.491,1215.596c-0.01,0.029-0.002,0.047-0.011,0.077
							c-0.63,1.746-8.931,26.939-6.185,45.403c2.777,19.133-11.873,44.564-11.856,44.571c-0.042,0.013-16.406-25.067-13.369-40.274
							C2253.542,1247.062,2280.599,1216.525,2281.491,1215.596z"/>
						<path style="fill:#E6E6E6;" d="M2281.961,1231.474c2.713,12.366,6.379,22.57,7.82,36.836
							c0.83,8.323-9.566,26.863-19.016,33.435c-3.386,3.199-7.327,3.901-7.327,3.901c-0.016-0.005,14.631-25.439,11.857-44.571
							c-2.746-18.465,5.556-43.658,6.185-45.403C2281.394,1216.688,2280.552,1225.023,2281.961,1231.474z"/>
					</g>
				</g>
				<g>
					<g id="XMLID_00000126294542398183532860000011365115405434398378_">
						<path style="fill:#929292;" d="M2217.72,1282.407c0.018,0.027,0.039,0.036,0.058,0.063
							c1.053,1.628,17.111,24.76,35.141,36.888c18.566,12.598,30.714,39.734,30.756,39.728c-0.002,0.008-33.299-9.537-44.543-22.421
							C2225.405,1321.207,2217.835,1283.59,2217.72,1282.407z"/>
						<path style="fill:#E6E6E6;" d="M2231.835,1293.79c12.651,7.567,24.077,13.046,37.482,22.83
							c7.8,5.71,16.724,25.321,15.984,35.481c0.462,4.271-1.625,6.984-1.626,6.984c-0.045,0.005-12.188-27.13-30.756-39.728
							c-18.031-12.129-34.09-35.259-35.141-36.888C2218.594,1283.261,2225.24,1289.838,2231.835,1293.79z"/>
					</g>
					<g id="XMLID_00000124133026310558948690000000190735278244329860_">
						<path style="fill:#929292;" d="M2299.073,1275.583c-0.007,0.028,0.001,0.047-0.006,0.076
							c-0.497,1.759-6.895,27.135-2.72,45.429c4.246,18.962-8.46,44.79-8.445,44.797c-0.042,0.013-18.378-24.405-16.51-39.653
							C2273.455,1307.877,2298.248,1276.538,2299.073,1275.583z"/>
						<path style="fill:#E6E6E6;" d="M2300.759,1291.38c3.669,12.223,8.124,22.26,10.663,36.418
							c1.47,8.261-7.521,27.083-16.48,33.95c-3.149,3.303-7.041,4.136-7.041,4.136c-0.015-0.007,12.692-25.834,8.446-44.797
							c-4.177-18.294,2.224-43.669,2.72-45.429C2299.057,1276.673,2298.856,1285.002,2300.759,1291.38z"/>
					</g>
				</g>
				<g id="XMLID_00000088109441249265522430000012684715481585093277_">
					<path style="fill:#929292;" d="M2253.227,1351.253c0.026,0.023,0.053,0.025,0.079,0.048
						c1.605,1.328,25.455,20.039,47.04,27.778c22.275,8.057,43.762,31.691,43.809,31.68c0.007,0.001-35.021-1.94-50.477-11.9
						C2274.922,1386.934,2253.765,1352.357,2253.227,1351.253z"/>
					<path style="fill:#E6E6E6;" d="M2270.871,1359.077c14.829,4.481,27.709,7.236,44.034,13.732
						c9.506,3.792,25.165,20.814,28.21,30.826c2.017,4.036,1.04,7.125,1.04,7.125c-0.044,0.011-21.533-23.623-43.809-31.68
						c-21.59-7.74-45.433-26.451-47.04-27.778C2254.376,1351.881,2263.137,1356.733,2270.871,1359.077z"/>
				</g>
				<g id="XMLID_00000145039452975306852550000016344691897431183765_">
					<path style="fill:#929292;" d="M2310.417,1413.146c0.032,0.019,0.054,0.018,0.088,0.036
						c1.901,1.083,29.792,16.229,52.745,20.908c23.707,4.885,50.396,25.334,50.435,25.32c0,0-34.583,2.853-52.1-4.861
						C2340.375,1445.33,2311.216,1414.154,2310.417,1413.146z"/>
					<path style="fill:#E6E6E6;" d="M2329.577,1418.414c15.586,2.366,28.839,3.306,46.354,7.479
						c10.203,2.437,29.608,17.117,35.007,26.61c2.948,3.717,2.747,6.908,2.747,6.907c-0.037,0.013-26.729-20.436-50.435-25.32
						c-22.951-4.68-50.846-19.826-52.745-20.908C2311.696,1413.605,2321.448,1417.172,2329.577,1418.414z"/>
				</g>
				<g id="XMLID_00000008866905258005546660000006891613071115481007_">
					<path style="fill:#929292;" d="M2328.225,1326.585c0.001,0.03,0.02,0.045,0.022,0.075c0.154,1.809,3.286,27.722,13.95,44.514
						c10.943,17.415,8.432,45.25,8.465,45.251c-0.021,0.014-26.406-19.63-30.254-34.781
						C2315.573,1363.433,2327.759,1327.688,2328.225,1326.585z"/>
					<path style="fill:#E6E6E6;" d="M2335.563,1341.471c7.933,11.003,15.814,19.732,23.386,32.89
						c4.399,7.677,2.772,27.893-3.158,36.513c-1.757,3.891-5.128,5.551-5.128,5.551c-0.031-0.001,2.48-27.836-8.465-45.251
						c-10.664-16.792-13.794-42.706-13.95-44.514C2328.602,1327.642,2331.432,1335.729,2335.563,1341.471z"/>
				</g>
				<g id="XMLID_00000176726912114227541650000003169347473519302805_">
					<path style="fill:#929292;" d="M2374.412,1384c0.007,0.025,0.032,0.035,0.035,0.062c0.531,1.538,8.911,23.514,21.68,36.713
						c13.143,13.699,17.06,38.135,17.091,38.132c-0.011,0.008-26.76-13.748-33.378-26.361
						C2371.715,1417.394,2374.248,1385.01,2374.412,1384z"/>
					<path style="fill:#E6E6E6;" d="M2383.955,1395.93c9.19,8.51,17.831,15.074,27.156,25.52c5.425,6.095,8.434,23.808,5.263,32.013
						c-0.65,3.589-3.157,5.443-3.157,5.443c-0.029,0.003-3.948-24.435-17.09-38.132c-12.767-13.199-21.149-35.174-21.68-36.713
						C2374.967,1384.863,2379.167,1391.487,2383.955,1395.93z"/>
				</g>
			</g>
			<g>
				<g id="XMLID_00000067959222169282881690000018254194218939850684_">
					<path style="fill:#929292;" d="M2536.708,874.131c0.029,0.022,0.028,0.044,0.055,0.066
						c1.556,1.394,23.612,21.679,32.266,39.326c8.99,18.279,36.931,36.603,36.935,36.609c0.049,0.004-0.921-27.985-12.643-40.824
						C2579.34,893.816,2538.003,874.702,2536.708,874.131z"/>
					<path style="fill:#E6E6E6;" d="M2545.698,888.745c4.992,12.128,7.89,22.583,15.138,35.998
						c4.226,7.826,24.308,21.303,36.444,24.213c4.851,1.807,8.685,1.177,8.684,1.176c-0.005-0.007-27.944-18.329-36.935-36.609
						c-8.653-17.648-30.707-37.932-32.266-39.326C2537.438,875.095,2543.083,882.421,2545.698,888.745z"/>
				</g>
				<g id="XMLID_00000093897898385243839930000004817209254871466112_">
					<path style="fill:#929292;" d="M2503.928,932.026c0.036,0.005,0.055,0.02,0.09,0.024c2.185,0.298,33.574,4.818,53.583,14.328
						c20.733,9.872,55.019,9.206,55.019,9.206c0.028-0.013-22.914-21.934-41.237-25.918
						C2549.376,924.835,2505.314,931.807,2503.928,932.026z"/>
					<path style="fill:#E6E6E6;" d="M2521.677,939.032c13.003,7.136,23.244,14.024,38.947,20.877
						c9.159,4.007,34.072,3.836,44.942-0.505c4.864-1.217,7.053-3.826,7.053-3.826s-34.287,0.671-55.019-9.201
						c-20.006-9.51-51.398-14.03-53.583-14.328C2505.194,932.416,2514.891,935.318,2521.677,939.032z"/>
				</g>
				<g>
					<g id="XMLID_00000006686321359821205440000013160037287534211750_">
						<path style="fill:#929292;" d="M2604.307,913.922c0.022,0.025,0.02,0.046,0.043,0.071c1.3,1.557,19.512,24.159,24.739,42.532
							c5.456,19.028,29.815,40.486,29.813,40.492c0.05,0.007,4.604-27.552-4.634-41.59
							C2643.3,938.503,2605.507,914.639,2604.307,913.922z"/>
						<path style="fill:#E6E6E6;" d="M2610.506,929.349c2.661,12.498,3.536,23.1,8.188,37.153
							c2.718,8.197,20.181,23.911,31.749,28.279c4.503,2.379,8.46,2.237,8.46,2.237c0.004-0.007-24.359-21.464-29.813-40.492
							c-5.224-18.373-23.44-40.974-24.739-42.532C2604.855,914.957,2609.107,922.831,2610.506,929.349z"/>
					</g>
					<g id="XMLID_00000011751968386084364860000014403672793511879359_">
						<path style="fill:#929292;" d="M2560.305,966.602c0.032,0.008,0.051,0.027,0.086,0.034c2.128,0.56,32.681,8.867,50.85,20.682
							c18.816,12.253,53.24,15.877,53.247,15.874c0.034-0.006-18.608-24.365-36.191-30.552
							C2607.19,965.156,2561.724,966.551,2560.305,966.602z"/>
						<path style="fill:#E6E6E6;" d="M2576.72,975.666c11.634,8.607,20.544,16.633,34.909,25.307
							c8.371,5.065,33.313,7.992,45.046,5.091c5.104-0.587,7.813-2.873,7.813-2.873c-0.007,0.004-34.432-3.62-53.247-15.873
							c-18.168-11.814-48.722-20.121-50.85-20.682C2561.498,967.141,2570.644,971.181,2576.72,975.666z"/>
					</g>
				</g>
				<g>
					<g id="XMLID_00000002366187618569793600000015940796864494184085_">
						<path style="fill:#929292;" d="M2667.459,964.32c0.016,0.029,0.007,0.048,0.021,0.077
							c0.831,1.742,12.073,26.923,11.657,45.542c-0.358,19.287,17.112,44.652,17.097,44.66c0.044,0.01,12.986-25.505,8.139-40.749
							C2698.72,995.485,2668.448,965.237,2667.459,964.32z"/>
						<path style="fill:#E6E6E6;" d="M2668.959,980.283c-1.133,12.474-3.463,22.793-3.119,37.167
							c0.212,8.386,12.674,26.876,22.739,33.339c3.711,3.166,7.657,3.809,7.657,3.809c0.011-0.008-17.459-25.373-17.1-44.66
							c0.418-18.619-10.825-43.8-11.657-45.542C2667.691,965.415,2669.541,973.776,2668.959,980.283z"/>
					</g>
					<g id="XMLID_00000023977949190088160010000004058247680551436939_">
						<path style="fill:#929292;" d="M2608.136,1006.145c0.031,0.015,0.045,0.035,0.075,0.049
							c1.935,0.95,29.636,14.866,43.978,29.755c14.854,15.429,47.651,25.667,47.657,25.667c0.046,0-10.876-27.025-26.38-36.4
							C2654.887,1013.893,2609.545,1006.364,2608.136,1006.145z"/>
						<path style="fill:#E6E6E6;" d="M2621.636,1018.035c8.905,10.524,15.276,19.966,26.806,31.095
							c6.719,6.497,30.381,14.183,42.827,13.707c5.208,0.438,8.58-1.22,8.577-1.221c-0.008-0.001-32.804-10.238-47.657-25.667
							c-14.342-14.89-42.042-28.806-43.978-29.755C2609.154,1006.893,2616.98,1012.549,2621.636,1018.035z"/>
					</g>
				</g>
				<g>
					<g id="XMLID_00000074418371743225571330000008179277032190368139_">
						<path style="fill:#929292;" d="M2713.082,1020.723c0.011,0.03-0.003,0.048,0.009,0.078c0.562,1.798,7.858,27.741,4.474,46.106
							c-3.416,19.03,10.011,45.785,9.994,45.791c0.039,0.012,17.081-23.994,14.668-39.519
							C2739.511,1054.487,2713.937,1021.722,2713.082,1020.723z"/>
						<path style="fill:#E6E6E6;" d="M2712.063,1036.634c-3.111,12.215-7.077,22.192-9.01,36.438
							c-1.115,8.31,8.424,27.783,17.456,35.134c3.209,3.483,7.05,4.495,7.05,4.495c0.021-0.007-13.407-26.763-9.993-45.792
							c3.384-18.367-3.915-44.308-4.474-46.106C2713.141,1021.827,2713.676,1030.261,2712.063,1036.634z"/>
					</g>
					<g id="XMLID_00000112600306224613942430000011845721857908693145_">
						<path style="fill:#929292;" d="M2647.039,1056.433c0.031,0.018,0.035,0.04,0.067,0.057
							c1.793,1.119,27.357,17.496,39.351,33.583c12.427,16.669,43.581,29.909,43.592,29.914c0.048,0.001-6.547-27.771-20.591-38.513
							C2692.653,1068.508,2648.415,1056.781,2647.039,1056.433z"/>
						<path style="fill:#E6E6E6;" d="M2658.696,1069.467c7.266,11.252,12.153,21.192,21.927,33.297
							c5.695,7.064,28.129,16.906,40.652,17.618c5.137,0.928,8.775-0.394,8.775-0.394c-0.012-0.003-31.167-13.245-43.593-29.913
							c-11.992-16.087-37.557-32.463-39.351-33.583C2647.939,1057.269,2654.899,1063.601,2658.696,1069.467z"/>
					</g>
				</g>
				<g>
					<g id="XMLID_00000139288829997625442540000000338769163442794894_">
						<path style="fill:#929292;" d="M2747.652,1082.276c-0.001,0.03-0.014,0.046-0.011,0.077
							c0.107,1.835,0.794,28.224-7.213,45.585c-8.185,17.999-1.724,46.223-1.753,46.228c0.026,0.012,22.999-20.714,24.573-36.214
							C2765.348,1119.308,2748.267,1083.378,2747.652,1082.276z"/>
						<path style="fill:#E6E6E6;" d="M2742.628,1097.59c-6.168,11.394-12.613,20.482-18.121,34.063
							c-3.197,7.922,1.307,28.418,8.353,37.015c2.28,3.905,5.816,5.496,5.816,5.496c0.03-0.003-6.434-28.229,1.753-46.228
							c8.008-17.362,7.32-43.749,7.213-45.585C2747.437,1083.358,2745.837,1091.644,2742.628,1097.59z"/>
					</g>
					<g id="XMLID_00000147942843993404578960000015506914051410937233_">
						<path style="fill:#929292;" d="M2673.233,1106.634c0.024,0.021,0.025,0.043,0.052,0.065
							c1.5,1.371,22.727,21.344,30.523,38.925c8.092,18.212,35.46,36.04,35.466,36.046c0.05,0.007,0.625-28.132-10.555-40.815
							C2715.389,1125.558,2674.512,1107.183,2673.233,1106.634z"/>
						<path style="fill:#E6E6E6;" d="M2681.523,1121.169c4.378,12.113,6.722,22.578,13.326,35.926
							c3.853,7.787,23.496,20.914,35.665,23.58c4.828,1.714,8.761,0.996,8.761,0.996c-0.006-0.005-27.375-17.833-35.468-36.046
							c-7.793-17.582-29.022-37.553-30.523-38.925C2673.918,1107.59,2679.23,1114.854,2681.523,1121.169z"/>
					</g>
				</g>
				<g>
					<g id="XMLID_00000075857610813920469540000001262632506180720269_">
						<path style="fill:#929292;" d="M2767.339,1145.73c-0.006,0.031-0.025,0.044-0.029,0.074
							c-0.331,1.808-6.055,27.691-18.186,43.493c-12.452,16.391-12.94,45.018-12.979,45.02c0.015,0.011,27.738-16.891,33.09-31.816
							C2775.883,1184.563,2767.698,1146.896,2767.339,1145.73z"/>
						<path style="fill:#E6E6E6;" d="M2758.655,1159.944c-8.865,10.217-17.44,18.144-26.166,30.622
							c-5.072,7.28-5.589,28.029-0.739,37.501c1.3,4.165,4.393,6.251,4.393,6.251c0.04-0.001,0.53-28.629,12.981-45.02
							c12.131-15.801,17.855-41.686,18.186-43.493C2766.862,1146.755,2763.273,1154.611,2758.655,1159.944z"/>
					</g>
					<g id="XMLID_00000052813535320688115260000009623303421583462064_">
						<path style="fill:#929292;" d="M2687.811,1158.472c0.02,0.025,0.016,0.046,0.037,0.072
							c1.159,1.562,17.385,24.258,20.827,42.637c3.609,19.042,26.23,40.576,26.228,40.583c0.048,0.009,7.485-27.489-0.48-41.564
							C2724.985,1183.237,2688.957,1159.195,2687.811,1158.472z"/>
						<path style="fill:#E6E6E6;" d="M2692.538,1173.93c1.43,12.51,1.233,23.111,4.533,37.172
							c1.926,8.201,18.108,23.974,29.444,28.39c4.342,2.395,8.387,2.273,8.387,2.273c0.003-0.006-22.618-21.541-26.229-40.583
							c-3.443-18.382-19.666-41.073-20.827-42.637C2688.263,1159.51,2691.781,1167.405,2692.538,1173.93z"/>
					</g>
				</g>
				<g>
					<g id="XMLID_00000101784111514514165830000014782065178310073008_">
						<path style="fill:#929292;" d="M2768.25,1219.63c-0.017,0.027-0.038,0.038-0.053,0.065
							c-0.92,1.668-15.098,25.393-32.098,38.159c-17.499,13.255-27.49,40.845-27.535,40.84c0.005,0.006,32.407-10.688,42.591-23.981
							C2763.606,1258.758,2768.225,1220.82,2768.25,1219.63z"/>
						<path style="fill:#E6E6E6;" d="M2755.094,1231.52c-11.996,8.015-22.939,13.898-35.521,24.156
							c-7.318,5.987-14.689,25.931-13.167,36.08c-0.132,4.293,2.155,6.938,2.157,6.938c0.045,0.005,10.039-27.584,27.535-40.84
							c17-12.766,31.176-36.492,32.098-38.159C2767.441,1220.516,2761.346,1227.333,2755.094,1231.52z"/>
					</g>
					<g id="XMLID_00000027600050063589863660000003691749233179760262_">
						<path style="fill:#929292;" d="M2686.827,1215.596c0.01,0.029,0.002,0.047,0.011,0.077c0.63,1.746,8.931,26.939,6.185,45.403
							c-2.777,19.133,11.873,44.564,11.856,44.571c0.042,0.013,16.406-25.067,13.369-40.274
							C2714.775,1247.062,2687.72,1216.525,2686.827,1215.596z"/>
						<path style="fill:#E6E6E6;" d="M2686.357,1231.474c-2.713,12.366-6.378,22.57-7.82,36.836
							c-0.829,8.323,9.567,26.863,19.016,33.435c3.386,3.199,7.327,3.901,7.327,3.901c0.017-0.005-14.631-25.439-11.856-44.571
							c2.746-18.465-5.555-43.658-6.185-45.403C2686.924,1216.688,2687.766,1225.023,2686.357,1231.474z"/>
					</g>
				</g>
				<g>
					<g id="XMLID_00000032636720334829485580000018256678651347091101_">
						<path style="fill:#929292;" d="M2750.599,1282.407c-0.018,0.027-0.039,0.036-0.059,0.063
							c-1.052,1.628-17.11,24.76-35.141,36.888c-18.566,12.598-30.714,39.734-30.756,39.728c0.002,0.008,33.299-9.537,44.543-22.421
							C2742.914,1321.207,2750.484,1283.59,2750.599,1282.407z"/>
						<path style="fill:#E6E6E6;" d="M2736.484,1293.79c-12.651,7.567-24.077,13.046-37.483,22.83
							c-7.799,5.71-16.723,25.321-15.983,35.481c-0.463,4.271,1.625,6.984,1.625,6.984c0.045,0.005,12.188-27.13,30.756-39.728
							c18.03-12.129,34.09-35.259,35.141-36.888C2749.725,1283.261,2743.079,1289.838,2736.484,1293.79z"/>
					</g>
					<g id="XMLID_00000096777630116126557890000016402672751200917400_">
						<path style="fill:#929292;" d="M2669.245,1275.583c0.007,0.028-0.001,0.047,0.005,0.076
							c0.498,1.759,6.896,27.135,2.721,45.429c-4.247,18.962,8.46,44.79,8.444,44.797c0.042,0.013,18.379-24.405,16.51-39.653
							C2694.864,1307.877,2670.071,1276.538,2669.245,1275.583z"/>
						<path style="fill:#E6E6E6;" d="M2667.559,1291.38c-3.668,12.223-8.123,22.26-10.662,36.418
							c-1.471,8.261,7.521,27.083,16.48,33.95c3.149,3.303,7.041,4.136,7.041,4.136c0.015-0.007-12.692-25.834-8.446-44.797
							c4.176-18.294-2.224-43.669-2.721-45.429C2669.262,1276.673,2669.462,1285.002,2667.559,1291.38z"/>
					</g>
				</g>
				<g id="XMLID_00000084506427067274053250000006372458495360244117_">
					<path style="fill:#929292;" d="M2715.091,1351.253c-0.025,0.023-0.052,0.025-0.078,0.048
						c-1.605,1.328-25.455,20.039-47.041,27.778c-22.274,8.057-43.761,31.691-43.808,31.68c0,0,35.021-1.94,50.476-11.9
						C2693.397,1386.934,2714.552,1352.357,2715.091,1351.253z"/>
					<path style="fill:#E6E6E6;" d="M2697.448,1359.077c-14.83,4.481-27.709,7.236-44.035,13.732
						c-9.505,3.792-25.165,20.814-28.21,30.826c-2.016,4.036-1.039,7.125-1.039,7.125c0.044,0.011,21.532-23.623,43.808-31.68
						c21.59-7.74,45.433-26.451,47.041-27.778C2713.942,1351.881,2705.181,1356.733,2697.448,1359.077z"/>
				</g>
				<g id="XMLID_00000129188762508427985150000016856660892145987254_">
					<path style="fill:#929292;" d="M2657.902,1413.146c-0.033,0.019-0.054,0.018-0.088,0.036
						c-1.901,1.083-29.793,16.229-52.745,20.908c-23.707,4.885-50.396,25.334-50.435,25.32c0,0,34.583,2.853,52.099-4.861
						C2627.944,1445.33,2657.102,1414.154,2657.902,1413.146z"/>
					<path style="fill:#E6E6E6;" d="M2638.742,1418.414c-15.586,2.366-28.839,3.306-46.354,7.479
						c-10.204,2.437-29.608,17.117-35.007,26.61c-2.948,3.717-2.747,6.908-2.747,6.907c0.037,0.013,26.728-20.436,50.435-25.32
						c22.951-4.68,50.845-19.826,52.745-20.908C2656.623,1413.605,2646.87,1417.172,2638.742,1418.414z"/>
				</g>
				<g id="XMLID_00000183215413724489162300000017949666394009055384_">
					<path style="fill:#929292;" d="M2640.093,1326.585c-0.001,0.03-0.02,0.045-0.021,0.075
						c-0.155,1.809-3.287,27.722-13.951,44.514c-10.943,17.415-8.432,45.25-8.464,45.251c0.021,0.014,26.406-19.63,30.253-34.781
						C2652.745,1363.433,2640.56,1327.688,2640.093,1326.585z"/>
					<path style="fill:#E6E6E6;" d="M2632.755,1341.471c-7.932,11.003-15.814,19.732-23.386,32.89
						c-4.399,7.677-2.772,27.893,3.158,36.513c1.758,3.891,5.129,5.551,5.129,5.551c0.031-0.001-2.48-27.836,8.464-45.251
						c10.664-16.792,13.795-42.706,13.951-44.514C2639.716,1327.642,2636.886,1335.729,2632.755,1341.471z"/>
				</g>
				<g id="XMLID_00000019656708589390162450000003175374489025308061_">
					<path style="fill:#929292;" d="M2593.906,1384c-0.006,0.025-0.031,0.035-0.035,0.062c-0.531,1.538-8.911,23.514-21.681,36.713
						c-13.142,13.699-17.059,38.135-17.091,38.132c0.011,0.008,26.76-13.748,33.378-26.361
						C2596.604,1417.394,2594.071,1385.01,2593.906,1384z"/>
					<path style="fill:#E6E6E6;" d="M2584.364,1395.93c-9.19,8.51-17.831,15.074-27.156,25.52
						c-5.426,6.095-8.434,23.808-5.263,32.013c0.65,3.589,3.157,5.443,3.157,5.443c0.029,0.003,3.948-24.435,17.089-38.132
						c12.768-13.199,21.15-35.174,21.681-36.713C2593.351,1384.863,2589.151,1391.487,2584.364,1395.93z"/>
				</g>
			</g>
			<path style="fill:#929292;" d="M2542.623,1465.831c0,13.643-25.804,24.703-57.636,24.703c-31.833,0-57.637-11.06-57.637-24.703
				s25.804-24.703,57.637-24.703C2516.819,1441.129,2542.623,1452.188,2542.623,1465.831z"/>
			<path style="fill:#E6E6E6;" d="M2484.986,1486.215c-31.42,0-53.317-10.742-53.317-20.384c0-9.64,21.896-20.383,53.317-20.383
				c31.421,0,53.318,10.743,53.318,20.383C2538.304,1475.473,2516.407,1486.215,2484.986,1486.215z"/>
		</g>
		<g>
			<path style="fill:#929292;" d="M2478.278,1321.464c-36.996,0-73.669-6.7-100.604-18.389l-9.251-4.014v-84.737h26.725l3.662,2.217
				c20.903,12.631,50.929,21.124,74.713,21.124c37.237,0,37.237-17.74,37.237-23.57c0-7.743,0-15.752-38.017-15.752
				c-4.179,0-8.426,0.071-12.672,0.147c-4.419,0.071-8.838,0.146-13.182,0.146h-15.366v-78.955l32.614,0.074
				c11.57,0,35.639,0,41.048-7.743c0.795-1.418,2.423-7.153,0.578-10.807c-1.823-3.606-8.051-6.258-17.084-7.278
				c-4.366-0.496-8.801-0.747-13.182-0.747c-23.116,0-46.458,6.88-69.363,20.453l-3.624,2.146h-26.29v-84.313l9.634-3.875
				c28.158-11.329,65.537-18.093,99.975-18.093c54.14,0,93.208,16.184,110.029,45.573c11.839,20.753,12.8,46.791,2.574,69.663
				c-5.274,11.783-13.055,21.826-22.688,29.591c21.367,12.763,35.038,34.15,36.996,60.12c3.917,51.897-37.694,88.345-77.999,100.237
				C2519.701,1319.116,2500.178,1321.464,2478.278,1321.464z"/>
			<path style="fill:#EAEAEA;" d="M2530.386,1299.948c-34.869,10.288-102.072,8.351-146.597-10.968v-59.288h7.075
				c47.002,28.415,135.256,38.946,135.256-15.596c0-36.282-42.412-30.824-79.231-30.824v-48.226c29.433,0,59.561,1.98,70.891-14.232
				c4.457-6.378,13.905-37.496-27.374-42.154c-32.825-3.732-64.06,5.141-92.112,21.756h-6.708v-58.569
				c56.066-22.553,162.431-28.947,190.924,20.853c19.4,33.987,0.522,83.035-43.517,92.469v2.542
				C2618.859,1168.681,2618.167,1274.036,2530.386,1299.948z"/>
		</g>
	</g>
</g>
</svg>
